<?xml version="1.0" encoding="utf-8"?>
<!-- Generator: Adobe Illustrator 26.0.3, SVG Export Plug-In . SVG Version: 6.00 Build 0)  -->
<svg version="1.1" id="Слой_1" xmlns:xodm="http://www.corel.com/coreldraw/odm/2003"
	 xmlns="http://www.w3.org/2000/svg" xmlns:xlink="http://www.w3.org/1999/xlink" x="0px" y="0px" viewBox="0 0 595.3 708.7"
	 style="enable-background:new 0 0 595.3 708.7;" xml:space="preserve">
<style type="text/css">
	.st0{fill-rule:evenodd;clip-rule:evenodd;fill:#212120;}
	.st1{fill-rule:evenodd;clip-rule:evenodd;fill:#FEFEFE;}
	.st2{fill-rule:evenodd;clip-rule:evenodd;fill:#E31E24;}
	.st3{clip-path:url(#SVGID_00000157274608916771331230000009666321919862126228_);}
	.st4{fill:none;stroke:#212120;stroke-width:0.5669;stroke-miterlimit:10;}
	.st5{fill-rule:evenodd;clip-rule:evenodd;fill:#FEFEFE;stroke:#FEFEFE;stroke-width:0.4252;stroke-miterlimit:10;}
	.st6{fill:#2B2A29;}
	.st7{fill:#FEFEFE;}
</style>
<g id="Слой_x0020_1">
	<g id="_2722581749408">
		<polygon class="st0" points="148.1,443.4 188,443.4 188,475.7 148.1,475.7 		"/>
		<path class="st1" d="M233.5,566l-0.4-2.3l-25.9,0c-3.3,0-6-1.7-7.5-4.6c-1.5-2.9-1.5-6.2,0.6-8.8l8.6-10.9l-15-14.1
			c-2.6-2.4-3.4-6-2.1-9.3c1.3-3.3,4.3-5.4,7.9-5.4l6.6,0c-11-8.2-22.4-19.3-31.5-29.6c-1.6-1.8-2.3-4-2.1-6.4
			c0.2-2.4,1.3-4.4,3.2-5.9l1.3-1c-0.6-1.3-1.1-2.7-1.5-4c-1.3-4.4-1.5-9.2-0.2-13.6l0.6-1.9c1.1-3.5,4.1-5.9,7.8-6l2-0.1
			c5-0.2,10.3,1.5,14.8,4.3l1.1-1.1c1.7-1.8,3.9-2.6,6.3-2.5c2.5,0.1,4.5,1.1,6.2,2.9l2,2.3c0.9,1.1,1.8,2.2,2.7,3.4l7.7,7.2
			c1.2,1.1,2.3,2.2,3.3,3.5l8.1,6.2c1.2,0.9,2.4,1.9,3.5,3l8.7,5.6c1.1,0.7,2.1,1.4,3.1,2.2l9.7,5.1c1.3,0.7,2.6,1.5,3.9,2.3
			c1.4,0.9,2.7,2,4,3.1c2.3,2.1,4.4,4.4,6,7c2.4,3.6,4,7.7,4.5,11.9c1.4,0.3,2.9,0.7,4.3,1c1.4-0.4,2.8-0.7,4.3-1.1
			c0.5-4.2,2.1-8.3,4.5-11.9c1.7-2.6,3.7-5,6-7c1.2-1.1,2.6-2.2,4-3.1c1.3-0.8,2.5-1.6,3.9-2.3l9.8-5.2c1-0.8,2-1.5,3-2.1l8.7-5.6
			c1.1-1.1,2.2-2.1,3.4-3l8.1-6.3c1-1.2,2.1-2.4,3.2-3.5l7.7-7.2c0.8-1.2,1.7-2.3,2.7-3.4l2-2.3c1.6-1.9,3.7-2.8,6.1-2.9
			c2.5-0.1,4.6,0.8,6.3,2.5l1.1,1.1c4.5-2.8,9.8-4.5,14.8-4.3l2,0.1c3.7,0.1,6.8,2.5,7.8,6l0.6,1.9c1.3,4.4,1.1,9.2-0.1,13.5
			c-0.4,1.4-0.9,2.7-1.5,4l1.3,1c1.9,1.5,3,3.5,3.2,5.9c0.2,2.4-0.5,4.6-2.1,6.4c-9.4,10.7-20,21.2-31.4,29.7l6.6,0
			c3.6,0,6.6,2.1,7.9,5.4c1.3,3.3,0.5,6.9-2.1,9.3l-14.9,14.1l7.2,10.9c1.8,2.7,2.1,5.9,0.6,8.8c-1.5,2.9-4.3,4.6-7.5,4.6l-24.5,0
			l-0.4,2.3c-0.7,4.1-4.2,7-8.4,7c-39.8,0.1-49.3,0.1-87.9,0.1C237.7,573,234.2,570.1,233.5,566L233.5,566z"/>
		<g>
			<path class="st1" d="M403.9,231.3l-9.3-8.1l88-29.7c4.8-1.6,10-0.7,14.4,2.4c4.5,3.2,7,7.7,7,12.7c0,29.2,0.1,57,0.1,86.2
				c0,5.6-3.3,10-8.6,11.9L460,319.1c-4.8,1.7-10,0.7-14.4-2.4c-4.5-3.2-7-7.7-7-12.7l-0.1-37.2c0-4.4-1.8-8.5-5.6-11.6L403.9,231.3
				L403.9,231.3L403.9,231.3z"/>
			<g>
				<polygon class="st0" points="490.5,281.1 490.4,216.8 432.1,236.2 453.5,254.9 453.6,293.4 				"/>
				<path class="st2" d="M453.6,305.6l36.9-12.4l0-12.2l-36.9,12.4L453.6,305.6L453.6,305.6z M422.8,228.1l9.3,8.1l58.3-19.4l0-11.2
					L422.8,228.1L422.8,228.1z"/>
			</g>
		</g>
		<g>
			<path class="st1" d="M229.5,146.3c52.5-30.9,120.7-13.2,151.6,39.3c30.9,52.5,13.2,120.7-39.3,151.6
				c-52.5,30.9-120.7,13.2-151.6-39.3C159.3,245.3,177,177.1,229.5,146.3L229.5,146.3z"/>
			<path class="st1" d="M272.5,510c-27.2-13.4-59.1-35.6-78.2-59.2c-32.5-40.2-51.2-94.4-54.8-145.6c-1.9-26.9-3.9-53.9-4.1-80.8
				l-0.1-14.3c0-3.5,2-6.6,5.2-7.9l13.2-5.5c15.6-6.4,31.4-12.2,47.4-17.5c25.7-8.5,57.3-18.1,84.4-18.1s58.7,9.6,84.4,18.1
				c16,5.3,31.9,11,47.4,17.5l13.2,5.5c3.3,1.4,5.3,4.4,5.2,7.9l-0.1,14.3c-0.2,27-2.2,53.9-4.1,80.8
				c-3.6,51.2-22.3,105.5-54.8,145.6c-19.1,23.6-51,45.8-78.2,59.2l-13.2,6.5L272.5,510L272.5,510z"/>
		</g>
		<g>
			<path class="st1" d="M159.4,463.4L159.4,463.4l15.6,12.2c4.4,3.4,6.1,8.4,5.5,13.4c-0.7,4.9-3.8,8.6-8.6,10.2l-63.2,21
				c-4.8,1.6-9.9,0.7-14.4-2.5c-4.4-3.2-6.9-7.7-6.9-12.7l-0.1-54.8l0,0l0-30c0-5.7,3.3-10.1,8.7-11.9l53.4-18l0,10.7l0,0l0.1,47.1
				c0,4.4,1.9,8.4,5.6,11.6L159.4,463.4L159.4,463.4z"/>
			<g>
				<polygon class="st0" points="99.3,431.6 99.4,497.9 157.5,478.2 135.9,459.4 135.9,419.5 				"/>
				<path class="st2" d="M157.5,478.2l-58.1,19.7l0,12.1l69-22.4L157.5,478.2z M135.8,408.7l-36.5,12l0,11l36.5-12.1L135.8,408.7z"
					/>
			</g>
		</g>
		<g>
			<path class="st2" d="M278.8,497.3c-25.1-12.4-55.8-33.6-73.4-55.4c-30.6-37.9-48.2-89.5-51.7-137.7c-1.9-26.3-3.8-53.6-4-79.9
				l-0.1-10.5l9.7-4c15.1-6.3,30.9-12,46.5-17.1c23.7-7.9,55.3-17.4,80-17.4s56.3,9.5,80,17.4c15.5,5.2,31.3,10.9,46.5,17.1l9.7,4
				l-0.1,10.5c-0.2,26.4-2.2,53.7-4,79.9c-3.4,48.3-21,99.8-51.7,137.7c-17.7,21.9-48.3,43-73.4,55.4l-6.9,3.4L278.8,497.3
				L278.8,497.3z"/>
			<path class="st0" d="M285.7,483.3c0,0-44.6-22-68.2-51.2c-23.6-29.2-44.4-75.4-48.2-129s-4-79-4-79s80.4-33.3,120.5-33.3
				s120.5,33.3,120.5,33.3s-0.2,25.3-4,79c-3.8,53.7-24.6,99.8-48.2,129S285.7,483.3,285.7,483.3z"/>
			<path class="st2" d="M236.7,158.5c45.8-27,105.2-11.6,132.2,34.3c27,45.8,11.6,105.2-34.3,132.2c-45.8,27-105.2,11.6-132.2-34.3
				C175.5,244.8,190.9,185.4,236.7,158.5L236.7,158.5z"/>
			<path class="st0" d="M243.9,170.7c39.2-23,89.8-9.9,112.8,29.3c23,39.2,9.9,89.8-29.3,112.8c-39.2,23-89.8,9.9-112.8-29.3
				C191.6,244.3,204.8,193.7,243.9,170.7z"/>
			<path class="st1" d="M249.7,180.5c33.8-19.9,77.4-8.6,97.3,25.2c19.9,33.8,8.6,77.4-25.2,97.3c-33.8,19.9-77.4,8.6-97.3-25.2
				C204.5,243.9,215.8,200.4,249.7,180.5z"/>
			<g>
				<defs>
					
						<ellipse id="SVGID_1_" transform="matrix(0.2511 -0.968 0.968 0.2511 -20.0189 457.5508)" cx="285.7" cy="241.7" rx="71" ry="71"/>
				</defs>
				<clipPath id="SVGID_00000115473113446603664880000013143926350251288984_">
					<use xlink:href="#SVGID_1_"  style="overflow:visible;"/>
				</clipPath>
				<g style="clip-path:url(#SVGID_00000115473113446603664880000013143926350251288984_);">
					<g>
						<g>
							<path id="_1" class="st0" d="M242.6,180.3c-0.3,0.9-1,2.5-1.2,3.1l-2.8,7c-0.3,0.9-1.2,2.7-1.3,3.5c0.7,0.3,0.8,0.3,1.6,0.4
								c0.7,0.1,0.9,0.2,1.6,0.3l19,2.8c4.2,0.6,4.5,1.5,5.9-0.5l3.9-5.5c0.7-0.9,1.4-1.8,2-2.7c2.5-3.8,5.4-7.2,7.9-11
								c-0.7-1-1.8-1.7-2.8-2.5c-1-0.8-1.8-1.5-2.8-2.2c-1.8-1.4-3.5-3.1-5.4-4.3c-7.1,1.7-14.1,4.5-20.7,8.4
								C245.8,178.1,244.2,179.2,242.6,180.3L242.6,180.3z M322.7,176.5l-1.2,0.3c-0.7,0.1-1.2,0.2-1.9,0.3
								c-1.4,0.2-2.5,0.4-3.9,0.5c-2.4,0.3-5.3,0.4-7.6,1.1l5.3,17c0.5,1.5,1,4.1,1.9,5.6l13.8,2.9c0.6,0.2,1.1,0.3,1.7,0.5l5.1,1.2
								c2,0.3,5.1,1.3,6.9,1.4c0.7-1.5,2.1-8.2,3-10.4C339.5,188.4,331.6,181.5,322.7,176.5L322.7,176.5z M359.3,257.4
								c-2.5-4.4-4.5-9-7.2-13.4l-19.3,13.6c0.4,1.3,0.3,2.2,0.4,3.5l1.7,17.5c0.1,1.3,0.2,2.3,0.4,3.5c0.1,0.9,0,2.8,0.5,3.5
								c0.2,0.4,9.3-0.5,11.8-0.8C353.3,276.5,357.3,267.1,359.3,257.4L359.3,257.4z M282.7,317.2c1.3-1,2.7-2.4,3.9-3.4
								c1.6-1.3,2.9-2.5,4.5-3.8c0.6-0.5,2.2-1.6,2.4-2c0.3-0.5,0.1-0.5-0.4-0.9c-6.5-5.2-13.4-10.1-20-15.2
								c-0.7-0.6-1.3-1.3-2.2-1.3c-0.9,0.1-20.5,9.1-21.6,9.7c0.8,1.4,2.6,6.8,3.4,9.3C262.2,314.2,272.4,316.8,282.7,317.2z
								 M212.7,260.3l11.5,9.7c1.1-1,3.9-6.7,5-8.6c2-3.7,5.8-10.7,7.9-14.2c-2.2-3.7-4.8-7.4-7-11.1c-2.2-3.8-4.8-7.3-6.9-10.9
								c-3.9,1.9-8.1,3.6-11.8,5.7C209.8,240.5,210.2,250.5,212.7,260.3L212.7,260.3z"/>
							<path class="st0" d="M257.1,248.9l26.7,22.7l27.6-16.2c-0.3-0.8-0.2-1.4-0.3-2.2c-0.1-0.9-0.2-1.3-0.2-2.2l-2.2-22.3
								c-0.2-1.5-0.5-8-1.2-9.1c-0.7,0.2-1.5,0-2.1-0.1l-33.6-4.5L257.1,248.9z"/>
						</g>
					</g>
				</g>
			</g>
			<path class="st4" d="M249.7,180.5c33.8-19.9,77.4-8.6,97.3,25.2c19.9,33.8,8.6,77.4-25.2,97.3c-33.8,19.9-77.4,8.6-97.3-25.2
				C204.5,243.9,215.8,200.4,249.7,180.5z"/>
		</g>
		<path class="st2" d="M318.2,513.7c-1.5-0.6-2.9-0.9-4.4-0.8c-1.4,0-2.9,0.4-4.6,1.1c-1.2,0.5-2.4,1-3.4,1.6
			c-1.1,0.6-2.1,1.2-3.1,2h0c1.9,3.2,5.4,5.4,9.9,6.2c2.2,0.3,4.7,0.4,7.2,0c1.2-0.2,2.5-0.5,3.8-0.9c1.3-0.4,2.5-0.9,3.8-1.6
			C325.4,518.1,322,515.2,318.2,513.7L318.2,513.7z M304.8,513c1.2-0.3,2.4-0.6,3.6-1.1c1.7-0.7,2.9-1.5,3.9-2.5
			c1-1,1.6-2.3,2.1-3.8c1.2-3.8,0.6-8.3-0.8-11.5c-1,0.5-2,1.1-2.9,1.7c-0.9,0.6-1.8,1.3-2.6,2c-1.6,1.4-3,3-4.1,4.7
			c-2.2,3.4-3.3,7.2-2.8,11C302.4,513.4,303.6,513.2,304.8,513L304.8,513z M333.8,505.3c-3.1-0.8-5.7-0.5-8.9,1.3
			c-2.3,1.2-4.3,2.7-6.1,4.3c2.3,3,6,4.8,10.5,5.1c2.2,0.1,4.6-0.2,7.1-0.8c2.4-0.7,4.9-1.8,7.2-3.3
			C341.5,509,337.8,506.4,333.8,505.3z M348.6,495.4c-1.6-0.3-3-0.3-4.4,0.1c-1.4,0.3-2.7,1-4.3,2c-2.2,1.4-4,3.1-5.6,4.9
			c1.3,1.4,2.9,2.4,4.8,3.1c1.8,0.7,3.9,1,6.2,0.9c4.5-0.2,9.4-2,13.8-5.4C356.5,498.3,352.6,496.1,348.6,495.4L348.6,495.4z
			 M381,472.9c-1.9-0.7-4-1.1-6.1-1c-1.6,0-3,0.3-4.3,0.9c-1.3,0.6-2.6,1.5-3.8,2.7c-0.5,0.5-0.9,0.9-1.3,1.4
			c-0.4,0.5-0.8,0.9-1.2,1.4c-0.8,1-1.5,2-2.1,3l0,0c3,2.2,7.1,2.9,11.5,1.9c2.1-0.5,4.4-1.4,6.5-2.6c2.1-1.3,4.2-2.9,6-5
			C384.7,474.4,382.9,473.5,381,472.9L381,472.9z M357.9,484.7c-0.7,0.2-1.3,0.6-2,1c-0.7,0.4-1.4,0.9-2.1,1.4
			c-1,0.8-1.9,1.7-2.8,2.6c-0.9,0.9-1.7,1.8-2.4,2.8v0c2.8,2.5,6.9,3.6,11.2,3c1.1-0.1,2.2-0.4,3.4-0.7c1.1-0.4,2.2-0.8,3.4-1.4
			c1.1-0.5,2.2-1.2,3.3-1.9c1.1-0.8,2.1-1.6,3.1-2.5c-2.6-2.5-6.8-4.3-10.8-4.6C360.6,484,359.2,484.2,357.9,484.7z M332,498.7
			c2.3-0.6,4.5-1.7,6.6-3.1c1.5-1,2.5-2.1,3.3-3.3c0.8-1.2,1.2-2.5,1.3-4.1c0.4-4-1-8.2-3-11.2c-3.7,2.9-6.3,6.5-7.8,10.3
			c-0.7,1.9-1.2,3.8-1.3,5.8C331.1,495.1,331.3,496.9,332,498.7L332,498.7z M349.3,487.5c1-0.6,2.1-1.4,3.1-2.2
			c0.7-0.6,1.3-1.1,1.8-1.7c0.5-0.6,0.9-1.2,1.2-1.8c0.6-1.3,0.9-2.6,1-4.2c0-4-1.7-8.1-4-10.9c-0.9,0.8-1.6,1.7-2.3,2.5
			c-0.7,0.9-1.4,1.8-2,2.7c-0.6,0.9-1.1,1.9-1.5,2.9c-0.4,1-0.8,1.9-1.1,2.9c-1.1,4-1,7.9,0.6,11.3
			C347.2,488.6,348.2,488.1,349.3,487.5L349.3,487.5z M323.9,504.5c3.1-1.8,4.7-3.7,5.3-6.9c0.8-3.9-0.2-8.3-2-11.4
			c-2,1.3-3.7,2.7-5.1,4.3c-1.5,1.6-2.7,3.3-3.6,5.1c-1.8,3.6-2.5,7.6-1.6,11.2C319.3,506.5,321.6,505.7,323.9,504.5L323.9,504.5z
			 M376.3,470.1c1.8-0.5,3.5-1.6,5-3.3c1.6-1.7,2.7-4.1,3.5-6.6c0.7-2.4,0.8-5,0.2-7.1c-4.3-0.2-9.5,2.7-12.4,6
			c-1.5,1.6-2.2,3.4-2.5,5.1c-0.3,1.8-0.1,3.6,0.6,5.6C372.6,470.5,374.5,470.6,376.3,470.1z M362.3,476.2c0.5-0.3,1-0.7,1.5-1.1
			c0.5-0.4,0.9-0.8,1.4-1.3c1.3-1.3,2.2-2.5,2.7-3.8c0.5-1.3,0.7-2.7,0.6-4.3c-0.2-2-0.7-4-1.6-5.8c-0.9-1.8-2-3.4-3.3-4.7
			c-1.5,1.8-2.9,3.6-3.8,5.6c-1,2-1.7,4-2.1,6c-0.8,4-0.4,8,1.6,11.2C360.3,477.5,361.3,476.9,362.3,476.2L362.3,476.2z
			 M289.3,522.3c3.1-1.1,6.7-2,10.8-2.8l0.2-1.7c-5.5,1-10.4,2.1-14.6,3.4c-4.2-1.2-9.1-2.4-14.6-3.3l0.2,1.7
			c4.1,0.7,7.7,1.7,10.9,2.8c-11.6,3.9-18.1,8.4-21.7,12.3l4.8,5.9c3.8-4.2,8.3-11.6,20.5-16.8c0.1,0,0.2,0.1,0.3,0.1
			c12,5.2,16.4,12.5,20.2,16.6l4.7-5.9C307.5,530.7,301,526.1,289.3,522.3L289.3,522.3z M229.5,492.5c0.8,1.2,1.8,2.3,3.3,3.2
			c2.2,1.4,4.4,2.5,6.6,3c0.7-1.8,0.9-3.6,0.8-5.5c-0.1-1.9-0.5-3.9-1.3-5.8c-1.5-3.8-4.1-7.4-7.8-10.3c-2,2.9-3.4,7.2-3,11.2
			C228.3,490,228.7,491.3,229.5,492.5L229.5,492.5z M217.2,483.8c0.5,0.6,1.1,1.1,1.8,1.7c1,0.8,2,1.5,3.1,2.2
			c1.1,0.6,2.2,1.1,3.3,1.5h0c1.7-3.4,1.7-7.4,0.6-11.3c-0.3-1-0.6-2-1.1-2.9c-0.4-1-0.9-1.9-1.5-2.9c-0.6-0.9-1.2-1.8-2-2.7
			c-0.7-0.9-1.5-1.7-2.4-2.5c-2.3,2.8-4.1,6.9-4,10.9c0,1.6,0.3,3,1,4.2C216.3,482.6,216.7,483.2,217.2,483.8L217.2,483.8z
			 M259.1,509.5c1,1,2.3,1.8,3.9,2.5c1.2,0.5,2.4,0.8,3.6,1.1c1.2,0.3,2.4,0.4,3.5,0.5c0.5-3.7-0.6-7.6-2.8-11
			c-1.1-1.7-2.5-3.3-4.1-4.7c-0.8-0.7-1.7-1.4-2.6-2c-0.9-0.6-1.9-1.2-2.9-1.7c-1.4,3.3-2,7.8-0.8,11.5
			C257.5,507.2,258.2,508.4,259.1,509.5L259.1,509.5z M247.5,504.6c2.3,1.2,4.6,2,6.9,2.4h0c0.9-3.6,0.3-7.7-1.6-11.2
			c-0.9-1.8-2.1-3.6-3.6-5.1c-1.4-1.6-3.2-3.1-5.1-4.3c-1.8,3.1-2.7,7.5-1.9,11.4C242.8,501,244.4,502.9,247.5,504.6z M206.1,474
			c0.5,0.5,0.9,0.9,1.4,1.3c0.5,0.4,1,0.8,1.5,1.1c1,0.7,2,1.3,3.1,1.8l0,0c2-3.2,2.4-7.2,1.6-11.2c-0.4-2-1.1-4-2.1-6
			c-1-2-2.3-3.8-3.9-5.6c-1.3,1.3-2.4,2.9-3.3,4.7c-0.9,1.8-1.5,3.8-1.6,5.8c-0.1,1.6,0.1,3,0.6,4.3
			C204,471.5,204.9,472.8,206.1,474L206.1,474z M209.2,481.5L209.2,481.5c-0.6-1-1.3-2-2.1-3c-0.4-0.5-0.8-1-1.2-1.4
			c-0.4-0.5-0.9-0.9-1.3-1.4c-1.3-1.3-2.5-2.2-3.9-2.7c-1.3-0.6-2.7-0.9-4.3-0.9c-2,0-4.1,0.4-6.1,1.1c-1.9,0.7-3.7,1.6-5.1,2.7
			c1.8,2.1,3.9,3.7,6,5c2.1,1.3,4.4,2.1,6.5,2.6C202.1,484.4,206.2,483.7,209.2,481.5L209.2,481.5z M190,467.1
			c1.5,1.7,3.2,2.8,5,3.3c1.8,0.5,3.7,0.4,5.7-0.3c0.7-2,0.9-3.8,0.6-5.6c-0.3-1.8-1.1-3.5-2.6-5.1c-2.9-3.3-8.1-6.1-12.4-5.9
			c-0.6,2.1-0.5,4.6,0.2,7.1C187.2,462.9,188.4,465.4,190,467.1L190,467.1z M222.7,492.6L222.7,492.6c-0.7-1-1.5-1.9-2.4-2.8
			c-0.8-0.9-1.8-1.8-2.8-2.6c-0.7-0.6-1.4-1-2.1-1.4c-0.7-0.4-1.3-0.7-2-1c-1.3-0.5-2.8-0.6-4.4-0.5c-4,0.3-8.2,2.2-10.8,4.7
			c1,0.9,2.1,1.8,3.1,2.5c1.1,0.7,2.2,1.4,3.3,1.9c1.1,0.5,2.2,1,3.4,1.4c1.1,0.3,2.3,0.6,3.4,0.7
			C215.9,496.2,219.9,495.1,222.7,492.6L222.7,492.6z M268.8,517.6c-1-0.7-2-1.4-3.1-2c-1.1-0.6-2.3-1.1-3.5-1.6
			c-1.7-0.7-3.2-1.1-4.6-1.1c-1.4-0.1-2.8,0.2-4.3,0.8c-3.8,1.5-7.2,4.5-9.1,7.5c1.2,0.6,2.5,1.2,3.8,1.6c1.3,0.4,2.5,0.7,3.8,0.9
			c2.5,0.4,5,0.4,7.1,0C263.4,523.1,266.9,520.8,268.8,517.6L268.8,517.6z M252.5,510.9c-1.8-1.6-3.8-3.1-6.1-4.2
			c-3.2-1.8-5.7-2.1-8.9-1.2c-3.9,1.1-7.7,3.7-9.8,6.6c2.3,1.5,4.8,2.5,7.2,3.2c2.5,0.6,4.8,0.9,7.1,0.8
			C246.6,515.7,250.3,513.9,252.5,510.9L252.5,510.9z M237.2,502.5c-1.6-1.7-3.5-3.4-5.7-4.8c-1.5-1-2.9-1.7-4.3-2
			c-1.4-0.3-2.8-0.3-4.4-0.1c-4,0.7-8,3-10.4,5.6c4.4,3.4,9.3,5.2,13.8,5.3c2.2,0.1,4.3-0.2,6.2-0.9
			C234.3,504.9,235.9,503.9,237.2,502.5z"/>
		<polygon class="st0" points="327.4,562.9 244.2,563 238.4,531.2 333.1,531.1 		"/>
		<polygon class="st2" points="204,522 220.9,537.9 209.8,553.8 239.2,553.8 233.4,522 		"/>
		<polygon class="st2" points="367.5,521.8 350.6,537.7 361.8,553.6 332.3,553.6 338,521.8 		"/>
		<path class="st5" d="M283.6,548.7l-4.1-10.8l-4,0l0,1.9l1.4,0l0,14.5l-1.4,0l0,1.9l4.7,0l0-1.9l-1.4,0l0-12.4l4.8,12.4l4.8-12.4
			l0,12.4l-1.4,0l0,1.9l4.7,0l0-1.9l-1.4,0l0-14.5l1.4,0l0-1.9l-4,0L283.6,548.7L283.6,548.7z M271.5,554.4l-5.8,0l0-14.5l5.8,0
			L271.5,554.4z M265.2,537.9l-1.5,1.7l0,15.1l1.5,1.6l6.5,0l1.7-1.6l0-15.1l-1.7-1.7L265.2,537.9L265.2,537.9z M295.5,537.8
			l-1.6,1.7l0,15.1l1.6,1.6l6.5,0l1.5-1.7l0-3.2l-1.9,0l0,3l-5.7,0l0-14.5l5.7,0l0,3l1.9,0l0-3.2l-1.5-1.7L295.5,537.8z
			 M250.3,541.5l1.9,0l0-1.6l2.8,0l0,14.5l-1.4,0l0,1.9l4.7,0l0-1.9l-1.4,0l0-14.5l2.8,0l0,1.6l1.9,0l0-3.6l-11.4,0L250.3,541.5
			L250.3,541.5z M318.7,539.7l0-1.9l-4.9,0l0,1.9l0.7,0l-5.4,6.7l0-6.7l1.5,0l0-1.9l-4.9,0l0,1.9l1.5,0l0,14.5l-1.5,0l0,1.9l4.9,0
			l0-1.9l-1.5,0l0-6.7l5.5,6.7l-0.7,0l0,1.9l4.9,0l0-1.9l-1.4,0l-6-7.3l5.9-7.3L318.7,539.7L318.7,539.7z"/>
		<g>
			<path class="st1" d="M147,459.7l-1.7,0.8c-2.8,1.4-6.2,1.2-9.2-0.7c-3-1.9-4.7-4.8-4.7-8v-2.6l-0.1-89.5c0-3.4,2-6.1,5.2-7.2
				l2.1-0.7L440.4,253l1.7-0.9c2.8-1.5,6.2-1.3,9.3,0.6c3,1.8,4.8,4.8,4.8,8v92.2c0,3.4-2,6.1-5.3,7.2c-1.3,0.4-2.5,0.8-3.4,1
				L147,459.7L147,459.7z"/>
			<g>
				<polygon class="st2" points="445.5,350.8 141.9,450.4 141.8,361.8 445.5,262.3 				"/>
				<polygon class="st0" points="439.8,276.5 416.1,277.6 445.5,262.3 445.5,350.8 416.2,351.6 439.9,339.8 416.2,341 439.9,329.3 
					416.2,330.4 439.9,318.7 416.2,319.9 439.8,308.2 416.2,309.3 439.8,297.6 416.1,298.7 439.8,287 416.1,288.2 				"/>
				<polygon class="st0" points="147.7,436.8 171.7,435.6 141.9,450.4 141.9,361.8 171.6,360.6 147.6,372.4 171.7,371.3 
					147.6,383.2 171.7,382 147.7,393.9 171.7,392.7 147.7,404.6 171.7,403.4 147.7,415.3 171.7,414.2 147.7,426.1 171.7,424.9 				
					"/>
			</g>
		</g>
		<path class="st6" d="M214.4,407.9l-6.3,7.5l-17.2,5.5l-6.1-3.5v-41.3l6.1-7.5l11-3.5l2.9,1.8v-2.7l9.6-3.1V375l-9.6,3.1v-4.2
			l-10.4,3.3v32.9l10.4-3.3v-4.2l9.6-3.1V407.9L214.4,407.9z M275,351.3v-9.6l-15.2,4.9v9.6l2.8-0.9v32.9l-10.8,3.5v-32.9l2.8-0.9
			v-9.6l-15.2,4.9v9.6l2.8-0.9v32.9l-10.8,3.5v-32.9l2.8-0.9v-9.6l-15.2,4.9v9.6l2.8-0.9v32.9l-2.8,0.9v9.6l56-18v-9.6l-2.8,0.9
			v-32.9L275,351.3L275,351.3z M353,368.9v-9.6l2.8-0.9v-30.7l-2.8,0.9v-5.3c1.2-1.2,2.3-2.4,3.2-3.7c0.9-1.2,1.8-2.8,2.8-4.8
			l6.5-2.1v42.6l2.8-0.9v9.6L353,368.9L353,368.9z M402.5,306.6l-10.7,40.2l2.3-0.7v9.6l-15.2,4.9v-9.6l2.9-0.9l10.1-36.2l-9.5,3
			v4.2l-9.6,3.1v-13.9l26.9-8.6L402.5,306.6L402.5,306.6z M317.7,363v-24.3l8.9-2.8v41.4l-9.4,3c-0.7-1.4-1.5-3.2-2.6-5.3
			c-1-2.1-2.1-4.3-3.3-6.6c-0.9-1.8-1.8-3.5-2.6-5.1s-1.5-2.9-1.9-3.7l-0.4,0.1v24l-8.7,2.8v-41.4l10.1-3.2l5.6,12.3
			c0.7,1.5,1.4,3,2,4.4c0.7,1.5,1.3,3,2,4.4L317.7,363L317.7,363z M338.7,352.1c-1.7,0.6-3.2,0.8-4.4,0.6c-1.2-0.2-2.1-0.6-2.8-1.4
			c-0.7-0.7-1.2-1.7-1.5-2.8c-0.3-1.1-0.5-2.4-0.5-3.7c0-1.3,0.1-2.5,0.4-3.9c0.3-1.3,0.8-2.6,1.5-3.8c0.7-1.2,1.7-2.3,2.9-3.3
			c1.2-1,2.7-1.8,4.5-2.3c1.7-0.6,3.2-0.7,4.4-0.6c1.2,0.2,2.2,0.6,2.9,1.3c0.7,0.7,1.2,1.6,1.5,2.7c0.3,1.1,0.5,2.4,0.5,3.7
			c0,1.3-0.1,2.6-0.4,3.9c-0.3,1.3-0.8,2.6-1.5,3.8c-0.7,1.2-1.7,2.3-2.9,3.3C342.1,350.7,340.5,351.5,338.7,352.1L338.7,352.1z
			 M330.4,362.3v-4.5l16.9-5.4v4.5L330.4,362.3z M338.8,336.3c-1,0.3-1.6,1-1.9,2c-0.3,1-0.5,2.4-0.5,4c0,1.9,0.2,3.2,0.5,4.1
			c0.3,0.9,1,1.2,1.9,0.9c0.9-0.3,1.5-1,1.9-2c0.3-1,0.5-2.5,0.5-4.4c0-1.6-0.1-2.8-0.4-3.7C340.4,336.3,339.8,336,338.8,336.3
			L338.8,336.3z"/>
		<path class="st7" d="M214.4,402.8l-6.3,7.5l-17.2,5.5l-6.1-3.5V371l6.1-7.5l11-3.5l2.9,1.8v-2.7l9.6-3.1v13.9l-9.6,3.1v-4.2
			l-10.4,3.3V405l10.4-3.3v-4.2l9.6-3.1V402.8L214.4,402.8z M275,346.2v-9.6l-15.2,4.9v9.6l2.8-0.9v32.9l-10.8,3.5v-32.9l2.8-0.9
			v-9.6l-15.2,4.9v9.6l2.8-0.9v32.9l-10.8,3.5v-32.9l2.8-0.9v-9.6l-15.2,4.9v9.6l2.8-0.9v32.9l-2.8,0.9v9.6l56-18v-9.6l-2.8,0.9
			v-32.9L275,346.2L275,346.2z M353,363.8v-9.6l2.8-0.9v-30.7l-2.8,0.9v-5.3c1.2-1.2,2.3-2.4,3.2-3.7c0.9-1.2,1.8-2.8,2.8-4.8
			l6.5-2.1v42.6l2.8-0.9v9.6L353,363.8L353,363.8z M402.5,301.5l-10.7,40.2l2.3-0.7v9.6l-15.2,4.9v-9.6l2.9-0.9l10.1-36.2l-9.5,3
			v4.2l-9.6,3.1v-13.9l26.9-8.6L402.5,301.5L402.5,301.5z M317.7,357.9v-24.3l8.9-2.8v41.4l-9.4,3c-0.7-1.4-1.5-3.2-2.6-5.3
			c-1-2.1-2.1-4.3-3.3-6.6c-0.9-1.8-1.8-3.5-2.6-5.1c-0.8-1.6-1.5-2.9-1.9-3.7l-0.4,0.1v24l-8.7,2.8v-41.4l10.1-3.2l5.6,12.3
			c0.7,1.5,1.4,3,2,4.4c0.7,1.5,1.3,3,2,4.4L317.7,357.9L317.7,357.9z M338.7,347c-1.7,0.6-3.2,0.8-4.4,0.6
			c-1.2-0.2-2.1-0.6-2.8-1.4c-0.7-0.7-1.2-1.7-1.5-2.8c-0.3-1.1-0.5-2.4-0.5-3.7c0-1.3,0.1-2.5,0.4-3.9c0.3-1.3,0.8-2.6,1.5-3.8
			c0.7-1.2,1.7-2.3,2.9-3.3c1.2-1,2.7-1.8,4.5-2.3c1.7-0.6,3.2-0.7,4.4-0.6c1.2,0.2,2.2,0.6,2.9,1.3s1.2,1.6,1.5,2.7
			s0.5,2.4,0.5,3.7c0,1.3-0.1,2.6-0.4,3.9c-0.3,1.3-0.8,2.6-1.5,3.8c-0.7,1.2-1.7,2.3-2.9,3.3C342.1,345.6,340.5,346.4,338.7,347
			L338.7,347z M330.4,357.2v-4.5l16.9-5.4v4.5L330.4,357.2z M338.8,331.2c-1,0.3-1.6,1-1.9,2c-0.3,1-0.5,2.4-0.5,4
			c0,1.9,0.2,3.2,0.5,4.1c0.3,0.9,1,1.2,1.9,0.9c0.9-0.3,1.5-1,1.9-2c0.3-1,0.5-2.5,0.5-4.4c0-1.6-0.1-2.8-0.4-3.7
			C340.4,331.2,339.8,330.9,338.8,331.2L338.8,331.2z"/>
		<path class="st0" d="M307.2,531.1c-3.9-3-9.6-6.1-17.9-8.8c3.1-1.1,6.7-2,10.8-2.8l0.2-1.7c-5.5,1-10.4,2.1-14.6,3.4
			c-4.2-1.2-9.1-2.4-14.6-3.3l0.2,1.7c4.1,0.7,7.7,1.7,10.9,2.8c-8.3,2.8-14,5.9-17.9,8.9l9.5,0c3-2.6,6.8-5.3,12-7.5
			c0.1,0,0.2,0.1,0.3,0.1c5.1,2.2,8.8,4.8,11.8,7.4L307.2,531.1z"/>
	</g>
</g>
</svg>
