<?xml version="1.0" encoding="utf-8"?>
<!-- Generator: Adobe Illustrator 26.0.3, SVG Export Plug-In . SVG Version: 6.00 Build 0)  -->
<svg version="1.1" id="Слой_1" xmlns:xodm="http://www.corel.com/coreldraw/odm/2003"
	 xmlns="http://www.w3.org/2000/svg" xmlns:xlink="http://www.w3.org/1999/xlink" x="0px" y="0px" viewBox="0 0 416.9 441.9"
	 style="enable-background:new 0 0 416.9 441.9;" xml:space="preserve">
<style type="text/css">
	.st0{fill-rule:evenodd;clip-rule:evenodd;fill:#212120;}
	.st1{fill-rule:evenodd;clip-rule:evenodd;fill:#FEFEFE;}
	.st2{fill-rule:evenodd;clip-rule:evenodd;fill:#E31E24;}
	.st3{clip-path:url(#SVGID_00000057856097545609288630000013720336760937826482_);}
	.st4{fill:none;stroke:#212120;stroke-width:0.5669;stroke-miterlimit:10;}
	.st5{fill-rule:evenodd;clip-rule:evenodd;fill:#FEFEFE;stroke:#FEFEFE;stroke-width:0.4252;stroke-miterlimit:10;}
	.st6{fill:#2B2A29;}
	.st7{fill:#FEFEFE;}
</style>
<g id="Слой_x0020_1">
	<g id="_2722581749408">
		<polygon class="st0" points="60.9,312.4 100.8,312.4 100.8,344.6 60.9,344.6 		"/>
		<path class="st1" d="M146.3,434.9l-0.4-2.3l-25.9,0c-3.3,0-6-1.7-7.5-4.6c-1.5-2.9-1.5-6.2,0.6-8.8l8.6-10.9l-15-14.1
			c-2.6-2.4-3.4-6-2.1-9.3c1.3-3.3,4.3-5.4,7.9-5.4l6.6,0c-11-8.2-22.4-19.3-31.5-29.6c-1.6-1.8-2.3-4-2.1-6.4
			c0.2-2.4,1.3-4.4,3.2-5.9l1.3-1c-0.6-1.3-1.1-2.7-1.5-4c-1.3-4.4-1.5-9.2-0.2-13.6l0.6-1.9c1.1-3.5,4.1-5.9,7.8-6l2-0.1
			c5-0.2,10.3,1.5,14.8,4.3l1.1-1.1c1.7-1.8,3.9-2.6,6.3-2.5c2.5,0.1,4.5,1.1,6.2,2.9l2,2.3c0.9,1.1,1.8,2.2,2.7,3.4l7.7,7.2
			c1.2,1.1,2.3,2.2,3.3,3.5l8.1,6.2c1.2,0.9,2.4,1.9,3.5,3l8.7,5.6c1.1,0.7,2.1,1.4,3.1,2.2l9.7,5.1c1.3,0.7,2.6,1.5,3.9,2.3
			c1.4,0.9,2.7,2,4,3.1c2.3,2.1,4.4,4.4,6,7c2.4,3.6,4,7.7,4.5,11.9c1.4,0.3,2.9,0.7,4.3,1c1.4-0.4,2.8-0.7,4.3-1.1
			c0.5-4.2,2.1-8.3,4.5-11.9c1.7-2.6,3.7-5,6-7c1.2-1.1,2.6-2.2,4-3.1c1.3-0.8,2.5-1.6,3.9-2.3l9.8-5.2c1-0.8,2-1.5,3-2.1l8.7-5.6
			c1.1-1.1,2.2-2.1,3.4-3l8.1-6.3c1-1.2,2.1-2.4,3.2-3.5l7.7-7.2c0.8-1.2,1.7-2.3,2.7-3.4l2-2.3c1.6-1.9,3.7-2.8,6.1-2.9
			c2.5-0.1,4.6,0.8,6.3,2.5l1.1,1.1c4.5-2.8,9.8-4.5,14.8-4.3l2,0.1c3.7,0.1,6.8,2.5,7.8,6l0.6,1.9c1.3,4.4,1.1,9.2-0.1,13.5
			c-0.4,1.4-0.9,2.7-1.5,4l1.3,1c1.9,1.5,3,3.5,3.2,5.9c0.2,2.4-0.5,4.6-2.1,6.4c-9.4,10.7-20,21.2-31.4,29.7l6.6,0
			c3.6,0,6.6,2.1,7.9,5.4c1.3,3.3,0.5,6.9-2.1,9.3l-14.9,14.1l7.2,10.9c1.8,2.7,2.1,5.9,0.6,8.8c-1.5,2.9-4.3,4.6-7.5,4.6l-24.5,0
			l-0.4,2.3c-0.7,4.1-4.2,7-8.4,7c-39.8,0.1-49.3,0.1-87.9,0.1C150.5,441.9,147,439,146.3,434.9L146.3,434.9z"/>
		<g>
			<path class="st1" d="M316.7,100.3l-9.3-8.1l88-29.7c4.8-1.6,10-0.7,14.4,2.4c4.5,3.2,7,7.7,7,12.7c0,29.2,0.1,57,0.1,86.2
				c0,5.6-3.3,10-8.6,11.9l-35.5,12.4c-4.8,1.7-10,0.7-14.4-2.4c-4.5-3.2-7-7.7-7-12.7l-0.1-37.2c0-4.4-1.8-8.5-5.6-11.6
				L316.7,100.3L316.7,100.3L316.7,100.3z"/>
			<g>
				<polygon class="st0" points="403.3,150 403.2,85.7 344.9,105.1 366.3,123.8 366.4,162.4 				"/>
				<path class="st2" d="M366.4,174.6l36.9-12.4l0-12.2l-36.9,12.4L366.4,174.6L366.4,174.6z M335.6,97l9.3,8.1l58.3-19.4l0-11.2
					L335.6,97L335.6,97z"/>
			</g>
		</g>
		<g>
			<path class="st1" d="M142.3,15.2C194.8-15.7,263.1,2,293.9,54.5c30.9,52.5,13.2,120.7-39.3,151.6
				C202.1,237,133.9,219.3,103,166.8C72.2,114.3,89.8,46.1,142.3,15.2L142.3,15.2z"/>
			<path class="st1" d="M185.3,379c-27.2-13.4-59.1-35.6-78.2-59.2C74.6,279.6,56,225.3,52.3,174.1c-1.9-26.9-3.9-53.9-4.1-80.8
				L48.1,79c0-3.5,2-6.6,5.2-7.9l13.2-5.5c15.6-6.4,31.4-12.2,47.4-17.5c25.7-8.5,57.3-18.1,84.4-18.1c27.1,0,58.7,9.6,84.4,18.1
				c16,5.3,31.9,11,47.4,17.5l13.2,5.5c3.3,1.4,5.3,4.4,5.2,7.9l-0.1,14.3c-0.2,27-2.2,53.9-4.1,80.8
				c-3.6,51.2-22.3,105.5-54.8,145.6c-19.1,23.6-51,45.8-78.2,59.2l-13.2,6.5L185.3,379L185.3,379z"/>
		</g>
		<g>
			<path class="st1" d="M72.2,332.3L72.2,332.3l15.6,12.2c4.4,3.4,6.1,8.4,5.5,13.4c-0.7,4.9-3.8,8.6-8.6,10.2l-63.2,21
				c-4.8,1.6-9.9,0.7-14.4-2.5c-4.4-3.2-6.9-7.7-6.9-12.7L0,319.1l0,0l0-30c0-5.7,3.3-10.1,8.7-11.9l53.4-18l0,10.7l0,0l0.1,47.1
				c0,4.4,1.9,8.4,5.6,11.6L72.2,332.3L72.2,332.3z"/>
			<g>
				<polygon class="st0" points="12.1,300.5 12.2,366.8 70.3,347.1 48.7,328.4 48.7,288.4 				"/>
				<path class="st2" d="M70.3,347.1l-58.1,19.7l0,12.1l69-22.4L70.3,347.1z M48.6,277.6l-36.5,12l0,11l36.5-12.1L48.6,277.6z"/>
			</g>
		</g>
		<g>
			<path class="st2" d="M191.6,366.3c-25.1-12.4-55.8-33.6-73.4-55.4c-30.6-37.9-48.2-89.5-51.7-137.7c-1.9-26.3-3.8-53.6-4-79.9
				l-0.1-10.5l9.7-4c15.1-6.3,30.9-12,46.5-17.1c23.7-7.9,55.3-17.4,80-17.4s56.3,9.5,80,17.4c15.5,5.2,31.3,10.9,46.5,17.1l9.7,4
				l-0.1,10.5c-0.2,26.4-2.2,53.7-4,79.9c-3.4,48.3-21,99.8-51.7,137.7c-17.7,21.9-48.3,43-73.4,55.4l-6.9,3.4L191.6,366.3
				L191.6,366.3z"/>
			<path class="st0" d="M198.5,352.3c0,0-44.6-22-68.2-51.2c-23.6-29.2-44.4-75.4-48.2-129s-4-79-4-79s80.4-33.3,120.5-33.3
				s120.5,33.3,120.5,33.3s-0.2,25.3-4,79c-3.8,53.7-24.6,99.8-48.2,129S198.5,352.3,198.5,352.3z"/>
			<path class="st2" d="M149.5,27.4c45.8-27,105.2-11.6,132.2,34.3c27,45.8,11.6,105.2-34.3,132.2c-45.8,27-105.2,11.6-132.2-34.3
				C88.3,113.8,103.7,54.4,149.5,27.4L149.5,27.4z"/>
			<path class="st0" d="M156.7,39.6c39.2-23,89.8-9.9,112.8,29.3c23,39.2,9.9,89.8-29.3,112.8c-39.2,23-89.8,9.9-112.8-29.3
				C104.4,113.3,117.6,62.7,156.7,39.6z"/>
			<path class="st1" d="M162.5,49.4c33.8-19.9,77.4-8.6,97.3,25.2c19.9,33.8,8.6,77.4-25.2,97.3c-33.8,19.9-77.4,8.6-97.3-25.2
				C117.3,112.8,128.6,69.3,162.5,49.4z"/>
			<g>
				<defs>
					
						<ellipse id="SVGID_1_" transform="matrix(0.2511 -0.968 0.968 0.2511 41.5452 274.9898)" cx="198.5" cy="110.6" rx="71" ry="71"/>
				</defs>
				<clipPath id="SVGID_00000037650405472481309680000014258464003918308745_">
					<use xlink:href="#SVGID_1_"  style="overflow:visible;"/>
				</clipPath>
				<g style="clip-path:url(#SVGID_00000037650405472481309680000014258464003918308745_);">
					<g>
						<g>
							<path id="_1" class="st0" d="M155.4,49.2c-0.3,0.9-1,2.5-1.2,3.1l-2.8,7c-0.3,0.9-1.2,2.7-1.3,3.5c0.7,0.3,0.8,0.3,1.6,0.4
								c0.7,0.1,0.9,0.2,1.6,0.3l19,2.8c4.2,0.6,4.5,1.5,5.9-0.5l3.9-5.5c0.7-0.9,1.4-1.8,2-2.7c2.5-3.8,5.4-7.2,7.9-11
								c-0.7-1-1.8-1.7-2.8-2.5c-1-0.8-1.8-1.5-2.8-2.2c-1.8-1.4-3.5-3.1-5.4-4.3c-7.1,1.7-14.1,4.5-20.7,8.4
								C158.6,47.1,157,48.1,155.4,49.2L155.4,49.2z M235.6,45.5l-1.2,0.3c-0.7,0.1-1.2,0.2-1.9,0.3c-1.4,0.2-2.5,0.4-3.9,0.5
								c-2.4,0.3-5.3,0.4-7.6,1.1l5.3,17c0.5,1.5,1,4.1,1.9,5.6l13.8,2.9c0.6,0.2,1.1,0.3,1.7,0.5l5.1,1.2c2,0.3,5.1,1.3,6.9,1.4
								c0.7-1.5,2.1-8.2,3-10.4C252.3,57.3,244.4,50.4,235.6,45.5L235.6,45.5z M272.1,126.3c-2.5-4.4-4.5-9-7.2-13.4l-19.3,13.6
								c0.4,1.3,0.3,2.2,0.4,3.5l1.7,17.5c0.1,1.3,0.2,2.3,0.4,3.5c0.1,0.9,0,2.8,0.5,3.5c0.2,0.4,9.3-0.5,11.8-0.8
								C266.1,145.4,270.1,136.1,272.1,126.3L272.1,126.3z M195.5,186.1c1.3-1,2.7-2.4,3.9-3.4c1.6-1.3,2.9-2.5,4.5-3.8
								c0.6-0.5,2.2-1.6,2.4-2c0.3-0.5,0.1-0.5-0.4-0.9c-6.5-5.2-13.4-10.1-20-15.2c-0.7-0.6-1.3-1.3-2.2-1.3
								c-0.9,0.1-20.5,9.1-21.6,9.7c0.8,1.4,2.6,6.8,3.4,9.3C175,183.1,185.2,185.7,195.5,186.1z M125.5,129.2l11.5,9.7
								c1.1-1,3.9-6.7,5-8.6c2-3.7,5.8-10.7,7.9-14.2c-2.2-3.7-4.8-7.4-7-11.1c-2.2-3.8-4.8-7.3-6.9-10.9c-3.9,1.9-8.1,3.6-11.8,5.7
								C122.6,109.4,123,119.4,125.5,129.2L125.5,129.2z"/>
							<path class="st0" d="M169.9,117.8l26.7,22.7l27.6-16.2c-0.3-0.8-0.2-1.4-0.3-2.2c-0.1-0.9-0.2-1.3-0.2-2.2l-2.2-22.3
								c-0.2-1.5-0.5-8-1.2-9.1c-0.7,0.2-1.5,0-2.1-0.1l-33.6-4.5L169.9,117.8z"/>
						</g>
					</g>
				</g>
			</g>
			<path class="st4" d="M162.5,49.4c33.8-19.9,77.4-8.6,97.3,25.2c19.9,33.8,8.6,77.4-25.2,97.3c-33.8,19.9-77.4,8.6-97.3-25.2
				C117.3,112.8,128.6,69.3,162.5,49.4z"/>
		</g>
		<path class="st2" d="M231,382.6c-1.5-0.6-2.9-0.9-4.4-0.8c-1.4,0-2.9,0.4-4.6,1.1c-1.2,0.5-2.4,1-3.4,1.6c-1.1,0.6-2.1,1.2-3.1,2
			h0c1.9,3.2,5.4,5.4,9.9,6.2c2.2,0.3,4.7,0.4,7.2,0c1.2-0.2,2.5-0.5,3.8-0.9c1.3-0.4,2.5-0.9,3.8-1.6
			C238.2,387,234.8,384.1,231,382.6L231,382.6z M217.6,381.9c1.2-0.3,2.4-0.6,3.6-1.1c1.7-0.7,2.9-1.5,3.9-2.5c1-1,1.6-2.3,2.1-3.8
			c1.2-3.8,0.6-8.3-0.8-11.5c-1,0.5-2,1.1-2.9,1.7c-0.9,0.6-1.8,1.3-2.6,2c-1.6,1.4-3,3-4.1,4.7c-2.2,3.4-3.3,7.2-2.8,11
			C215.2,382.3,216.4,382.2,217.6,381.9L217.6,381.9z M246.6,374.2c-3.1-0.8-5.7-0.5-8.9,1.3c-2.3,1.2-4.3,2.7-6.1,4.3
			c2.3,3,6,4.8,10.5,5.1c2.2,0.1,4.6-0.2,7.1-0.8c2.4-0.7,4.9-1.8,7.2-3.3C254.3,377.9,250.6,375.3,246.6,374.2z M261.4,364.3
			c-1.6-0.3-3-0.3-4.4,0.1c-1.4,0.3-2.7,1-4.3,2c-2.2,1.4-4,3.1-5.6,4.9c1.3,1.4,2.9,2.4,4.8,3.1c1.8,0.7,3.9,1,6.2,0.9
			c4.5-0.2,9.4-2,13.8-5.4C269.3,367.3,265.4,365,261.4,364.3L261.4,364.3z M293.8,341.8c-1.9-0.7-4-1.1-6.1-1c-1.6,0-3,0.3-4.3,0.9
			c-1.3,0.6-2.6,1.5-3.8,2.7c-0.5,0.5-0.9,0.9-1.3,1.4c-0.4,0.5-0.8,0.9-1.2,1.4c-0.8,1-1.5,2-2.1,3l0,0c3,2.2,7.1,2.9,11.5,1.9
			c2.1-0.5,4.4-1.4,6.5-2.6c2.1-1.3,4.2-2.9,6-5C297.5,343.4,295.7,342.4,293.8,341.8L293.8,341.8z M270.7,353.6
			c-0.7,0.2-1.3,0.6-2,1c-0.7,0.4-1.4,0.9-2.1,1.4c-1,0.8-1.9,1.7-2.8,2.6c-0.9,0.9-1.7,1.8-2.4,2.8v0c2.8,2.5,6.9,3.6,11.2,3
			c1.1-0.1,2.2-0.4,3.4-0.7c1.1-0.4,2.2-0.8,3.4-1.4c1.1-0.5,2.2-1.2,3.3-1.9c1.1-0.8,2.1-1.6,3.1-2.5c-2.6-2.5-6.8-4.3-10.8-4.6
			C273.5,353,272,353.1,270.7,353.6z M244.8,367.6c2.3-0.6,4.5-1.7,6.6-3.1c1.5-1,2.5-2.1,3.3-3.3c0.8-1.2,1.2-2.5,1.3-4.1
			c0.4-4-1-8.2-3-11.2c-3.7,2.9-6.3,6.5-7.8,10.3c-0.7,1.9-1.2,3.8-1.3,5.8C243.9,364,244.1,365.9,244.8,367.6L244.8,367.6z
			 M262.1,356.4c1-0.6,2.1-1.4,3.1-2.2c0.7-0.6,1.3-1.1,1.8-1.7c0.5-0.6,0.9-1.2,1.2-1.8c0.6-1.3,0.9-2.6,1-4.2c0-4-1.7-8.1-4-10.9
			c-0.9,0.8-1.6,1.7-2.3,2.5c-0.7,0.9-1.4,1.8-2,2.7c-0.6,0.9-1.1,1.9-1.5,2.9c-0.4,1-0.8,1.9-1.1,2.9c-1.1,4-1,7.9,0.6,11.3
			C260,357.5,261,357,262.1,356.4L262.1,356.4z M236.7,373.5c3.1-1.8,4.7-3.7,5.3-6.9c0.8-3.9-0.2-8.3-2-11.4
			c-2,1.3-3.7,2.7-5.1,4.3c-1.5,1.6-2.7,3.3-3.6,5.1c-1.8,3.6-2.5,7.6-1.6,11.2C232.1,375.5,234.4,374.7,236.7,373.5L236.7,373.5z
			 M289.2,339c1.8-0.5,3.5-1.6,5-3.3c1.6-1.7,2.7-4.1,3.5-6.6c0.7-2.4,0.8-5,0.2-7.1c-4.3-0.2-9.5,2.7-12.4,6
			c-1.5,1.6-2.2,3.4-2.5,5.1c-0.3,1.8-0.1,3.6,0.6,5.6C285.4,339.4,287.3,339.5,289.2,339z M275.1,345.1c0.5-0.3,1-0.7,1.5-1.1
			c0.5-0.4,0.9-0.8,1.4-1.3c1.3-1.3,2.2-2.5,2.7-3.8c0.5-1.3,0.7-2.7,0.6-4.3c-0.2-2-0.7-4-1.6-5.8c-0.9-1.8-2-3.4-3.3-4.7
			c-1.5,1.8-2.9,3.6-3.8,5.6c-1,2-1.7,4-2.1,6c-0.8,4-0.4,8,1.6,11.2C273.1,346.5,274.1,345.8,275.1,345.1L275.1,345.1z
			 M202.1,391.2c3.1-1.1,6.7-2,10.8-2.8l0.2-1.7c-5.5,1-10.4,2.1-14.6,3.4c-4.2-1.2-9.1-2.4-14.6-3.3l0.2,1.7
			c4.1,0.7,7.7,1.7,10.9,2.8c-11.6,3.9-18.1,8.4-21.7,12.3l4.8,5.9c3.8-4.2,8.3-11.6,20.5-16.8c0.1,0,0.2,0.1,0.3,0.1
			c12,5.2,16.4,12.5,20.2,16.6l4.7-5.9C220.3,399.6,213.8,395.1,202.1,391.2L202.1,391.2z M142.3,361.4c0.8,1.2,1.8,2.3,3.3,3.2
			c2.2,1.4,4.4,2.5,6.6,3c0.7-1.8,0.9-3.6,0.8-5.5c-0.1-1.9-0.5-3.9-1.3-5.8c-1.5-3.8-4.1-7.4-7.8-10.3c-2,2.9-3.4,7.2-3,11.2
			C141.1,359,141.5,360.3,142.3,361.4L142.3,361.4z M130,352.7c0.5,0.6,1.1,1.1,1.8,1.7c1,0.8,2,1.5,3.1,2.2
			c1.1,0.6,2.2,1.1,3.3,1.5h0c1.7-3.4,1.7-7.4,0.6-11.3c-0.3-1-0.6-2-1.1-2.9c-0.4-1-0.9-1.9-1.5-2.9c-0.6-0.9-1.2-1.8-2-2.7
			c-0.7-0.9-1.5-1.7-2.4-2.5c-2.3,2.8-4.1,6.9-4,10.9c0,1.6,0.3,3,1,4.2C129.1,351.5,129.5,352.1,130,352.7L130,352.7z M171.9,378.4
			c1,1,2.3,1.8,3.9,2.5c1.2,0.5,2.4,0.8,3.6,1.1c1.2,0.3,2.4,0.4,3.5,0.5c0.5-3.7-0.6-7.6-2.8-11c-1.1-1.7-2.5-3.3-4.1-4.7
			c-0.8-0.7-1.7-1.4-2.6-2c-0.9-0.6-1.9-1.2-2.9-1.7c-1.4,3.3-2,7.8-0.8,11.5C170.3,376.1,171,377.4,171.9,378.4L171.9,378.4z
			 M160.3,373.6c2.3,1.2,4.6,2,6.9,2.4h0c0.9-3.6,0.3-7.7-1.6-11.2c-0.9-1.8-2.1-3.6-3.6-5.1c-1.4-1.6-3.2-3.1-5.1-4.3
			c-1.8,3.1-2.7,7.5-1.9,11.4C155.6,369.9,157.2,371.8,160.3,373.6z M118.9,343c0.5,0.5,0.9,0.9,1.4,1.3c0.5,0.4,1,0.8,1.5,1.1
			c1,0.7,2,1.3,3.1,1.8l0,0c2-3.2,2.4-7.2,1.6-11.2c-0.4-2-1.1-4-2.1-6c-1-2-2.3-3.8-3.9-5.6c-1.3,1.3-2.4,2.9-3.3,4.7
			c-0.9,1.8-1.5,3.8-1.6,5.8c-0.1,1.6,0.1,3,0.6,4.3C116.8,340.5,117.7,341.7,118.9,343L118.9,343z M122,350.4L122,350.4
			c-0.6-1-1.3-2-2.1-3c-0.4-0.5-0.8-1-1.2-1.4c-0.4-0.5-0.9-0.9-1.3-1.4c-1.3-1.3-2.5-2.2-3.9-2.7c-1.3-0.6-2.7-0.9-4.3-0.9
			c-2,0-4.1,0.4-6.1,1.1c-1.9,0.7-3.7,1.6-5.1,2.7c1.8,2.1,3.9,3.7,6,5c2.1,1.3,4.4,2.1,6.5,2.6C114.9,353.3,119,352.6,122,350.4
			L122,350.4z M102.8,336c1.5,1.7,3.2,2.8,5,3.3c1.8,0.5,3.7,0.4,5.7-0.3c0.7-2,0.9-3.8,0.6-5.6c-0.3-1.8-1.1-3.5-2.6-5.1
			c-2.9-3.3-8.1-6.1-12.4-5.9c-0.6,2.1-0.5,4.6,0.2,7.1C100,331.9,101.2,334.3,102.8,336L102.8,336z M135.5,361.5L135.5,361.5
			c-0.7-1-1.5-1.9-2.4-2.8c-0.8-0.9-1.8-1.8-2.8-2.6c-0.7-0.6-1.4-1-2.1-1.4c-0.7-0.4-1.3-0.7-2-1c-1.3-0.5-2.8-0.6-4.4-0.5
			c-4,0.3-8.2,2.2-10.8,4.7c1,0.9,2.1,1.8,3.1,2.5c1.1,0.7,2.2,1.4,3.3,1.9c1.1,0.5,2.2,1,3.4,1.4c1.1,0.3,2.3,0.6,3.4,0.7
			C128.7,365.1,132.7,364,135.5,361.5L135.5,361.5z M181.6,386.5c-1-0.7-2-1.4-3.1-2c-1.1-0.6-2.3-1.1-3.5-1.6
			c-1.7-0.7-3.2-1.1-4.6-1.1c-1.4-0.1-2.8,0.2-4.3,0.8c-3.8,1.5-7.2,4.5-9.1,7.5c1.2,0.6,2.5,1.2,3.8,1.6c1.3,0.4,2.5,0.7,3.8,0.9
			c2.5,0.4,5,0.4,7.1,0C176.2,392,179.7,389.8,181.6,386.5L181.6,386.5z M165.4,379.8c-1.8-1.6-3.8-3.1-6.1-4.2
			c-3.2-1.8-5.7-2.1-8.9-1.2c-3.9,1.1-7.7,3.7-9.8,6.6c2.3,1.5,4.8,2.5,7.2,3.2c2.5,0.6,4.8,0.9,7.1,0.8
			C159.4,384.6,163.1,382.9,165.4,379.8L165.4,379.8z M150,371.4c-1.6-1.7-3.5-3.4-5.7-4.8c-1.5-1-2.9-1.7-4.3-2
			c-1.4-0.3-2.8-0.3-4.4-0.1c-4,0.7-8,3-10.4,5.6c4.4,3.4,9.3,5.2,13.8,5.3c2.2,0.1,4.3-0.2,6.2-0.9
			C147.1,373.9,148.7,372.8,150,371.4z"/>
		<polygon class="st0" points="240.2,431.8 157,432 151.2,400.2 245.9,400 		"/>
		<polygon class="st2" points="116.8,391 133.7,406.8 122.6,422.8 152,422.7 146.2,390.9 		"/>
		<polygon class="st2" points="280.3,390.7 263.4,406.7 274.6,422.5 245.1,422.6 250.8,390.8 		"/>
		<path class="st5" d="M196.4,417.6l-4.1-10.8l-4,0l0,1.9l1.4,0l0,14.5l-1.4,0l0,1.9l4.7,0l0-1.9l-1.4,0l0-12.4l4.8,12.4l4.8-12.4
			l0,12.4l-1.4,0l0,1.9l4.7,0l0-1.9l-1.4,0l0-14.5l1.4,0l0-1.9l-4,0L196.4,417.6L196.4,417.6z M184.3,423.3l-5.8,0l0-14.5l5.8,0
			L184.3,423.3z M178,406.8l-1.5,1.7l0,15.1l1.5,1.6l6.5,0l1.7-1.6l0-15.1l-1.7-1.7L178,406.8L178,406.8z M208.3,406.8l-1.6,1.7
			l0,15.1l1.6,1.6l6.5,0l1.5-1.7l0-3.2l-1.9,0l0,3l-5.7,0l0-14.5l5.7,0l0,3l1.9,0l0-3.2l-1.5-1.7L208.3,406.8z M163.1,410.4l1.9,0
			l0-1.6l2.8,0l0,14.5l-1.4,0l0,1.9l4.7,0l0-1.9l-1.4,0l0-14.5l2.8,0l0,1.6l1.9,0l0-3.6l-11.4,0L163.1,410.4L163.1,410.4z
			 M231.5,408.7l0-1.9l-4.9,0l0,1.9l0.7,0l-5.4,6.7l0-6.7l1.5,0l0-1.9l-4.9,0l0,1.9l1.5,0l0,14.5l-1.5,0l0,1.9l4.9,0l0-1.9l-1.5,0
			l0-6.7l5.5,6.7l-0.7,0l0,1.9l4.9,0l0-1.9l-1.4,0l-6-7.3l5.9-7.3L231.5,408.7L231.5,408.7z"/>
		<g>
			<path class="st1" d="M59.8,328.6l-1.7,0.8c-2.8,1.4-6.2,1.2-9.2-0.7c-3-1.9-4.7-4.8-4.7-8v-2.6l-0.1-89.5c0-3.4,2-6.1,5.2-7.2
				l2.1-0.7L353.2,122l1.7-0.9c2.8-1.5,6.2-1.3,9.3,0.6c3,1.8,4.8,4.8,4.8,8v92.2c0,3.4-2,6.1-5.3,7.2c-1.3,0.4-2.5,0.8-3.4,1
				L59.8,328.6L59.8,328.6z"/>
			<g>
				<polygon class="st2" points="358.3,219.8 54.7,319.3 54.6,230.8 358.3,131.2 				"/>
				<polygon class="st0" points="352.6,145.4 328.9,146.5 358.3,131.2 358.3,219.8 329,220.5 352.7,208.8 329,209.9 352.7,198.2 
					329,199.4 352.7,187.7 329,188.8 352.6,177.1 329,178.2 352.6,166.5 329,167.7 352.6,156 328.9,157.1 				"/>
				<polygon class="st0" points="60.5,305.7 84.6,304.6 54.7,319.3 54.7,230.8 84.4,229.5 60.4,241.4 84.5,240.2 60.4,252.1 
					84.5,250.9 60.5,262.8 84.5,261.7 60.5,273.6 84.5,272.4 60.5,284.3 84.5,283.1 60.5,295 84.5,293.8 				"/>
			</g>
		</g>
		<path class="st6" d="M127.2,276.8l-6.3,7.5l-17.2,5.5l-6.1-3.5V245l6.1-7.5l11-3.5l2.9,1.8v-2.7l9.6-3.1v13.9l-9.6,3.1v-4.2
			l-10.4,3.3V279l10.4-3.3v-4.2l9.6-3.1V276.8L127.2,276.8z M187.8,220.2v-9.6l-15.2,4.9v9.6l2.8-0.9v32.9l-10.8,3.5v-32.9l2.8-0.9
			v-9.6l-15.2,4.9v9.6l2.8-0.9v32.9l-10.8,3.5v-32.9l2.8-0.9v-9.6l-15.2,4.9v9.6l2.8-0.9v32.9l-2.8,0.9v9.6l56-18v-9.6l-2.8,0.9
			v-32.9L187.8,220.2L187.8,220.2z M265.8,237.8v-9.6l2.8-0.9v-30.7l-2.8,0.9v-5.3c1.2-1.2,2.3-2.4,3.2-3.7c0.9-1.2,1.8-2.8,2.8-4.8
			l6.5-2.1v42.6l2.8-0.9v9.6L265.8,237.8L265.8,237.8z M315.3,175.5l-10.7,40.2l2.3-0.7v9.6l-15.2,4.9v-9.6l2.9-0.9l10.1-36.2
			l-9.5,3v4.2l-9.6,3.1v-13.9l26.9-8.6L315.3,175.5L315.3,175.5z M230.5,232v-24.3l8.9-2.8v41.4l-9.4,3c-0.7-1.4-1.5-3.2-2.6-5.3
			c-1-2.1-2.1-4.3-3.3-6.6c-0.9-1.8-1.8-3.5-2.6-5.1s-1.5-2.9-1.9-3.7l-0.4,0.1v24l-8.7,2.8v-41.4l10.1-3.2l5.6,12.3
			c0.7,1.5,1.4,3,2,4.4c0.7,1.5,1.3,3,2,4.4L230.5,232L230.5,232z M251.5,221c-1.7,0.6-3.2,0.8-4.4,0.6c-1.2-0.2-2.1-0.6-2.8-1.4
			c-0.7-0.7-1.2-1.7-1.5-2.8c-0.3-1.1-0.5-2.4-0.5-3.7c0-1.3,0.1-2.5,0.4-3.9c0.3-1.3,0.8-2.6,1.5-3.8c0.7-1.2,1.7-2.3,2.9-3.3
			c1.2-1,2.7-1.8,4.5-2.3c1.7-0.6,3.2-0.7,4.4-0.6c1.2,0.2,2.2,0.6,2.9,1.3c0.7,0.7,1.2,1.6,1.5,2.7c0.3,1.1,0.5,2.4,0.5,3.7
			c0,1.3-0.1,2.6-0.4,3.9c-0.3,1.3-0.8,2.6-1.5,3.8c-0.7,1.2-1.7,2.3-2.9,3.3C254.9,219.7,253.3,220.4,251.5,221L251.5,221z
			 M243.2,231.2v-4.5l16.9-5.4v4.5L243.2,231.2z M251.6,205.2c-1,0.3-1.6,1-1.9,2s-0.5,2.4-0.5,4c0,1.9,0.2,3.2,0.5,4.1
			c0.3,0.9,1,1.2,1.9,0.9c0.9-0.3,1.5-1,1.9-2c0.3-1,0.5-2.5,0.5-4.4c0-1.6-0.1-2.8-0.4-3.7C253.2,205.2,252.6,204.9,251.6,205.2
			L251.6,205.2z"/>
		<path class="st7" d="M127.2,271.7l-6.3,7.5l-17.2,5.5l-6.1-3.5v-41.3l6.1-7.5l11-3.5l2.9,1.8V228l9.6-3.1v13.9l-9.6,3.1v-4.2
			l-10.4,3.3v32.9l10.4-3.3v-4.2l9.6-3.1V271.7L127.2,271.7z M187.8,215.1v-9.6l-15.2,4.9v9.6l2.8-0.9V252l-10.8,3.5v-32.9l2.8-0.9
			V212l-15.2,4.9v9.6l2.8-0.9v32.9l-10.8,3.5v-32.9l2.8-0.9v-9.6l-15.2,4.9v9.6l2.8-0.9v32.9l-2.8,0.9v9.6l56-18v-9.6l-2.8,0.9V216
			L187.8,215.1L187.8,215.1z M265.8,232.7v-9.6l2.8-0.9v-30.7l-2.8,0.9V187c1.2-1.2,2.3-2.4,3.2-3.7c0.9-1.2,1.8-2.8,2.8-4.8
			l6.5-2.1v42.6l2.8-0.9v9.6L265.8,232.7L265.8,232.7z M315.3,170.4l-10.7,40.2l2.3-0.7v9.6l-15.2,4.9v-9.6l2.9-0.9l10.1-36.2
			l-9.5,3v4.2l-9.6,3.1v-13.9l26.9-8.6L315.3,170.4L315.3,170.4z M230.5,226.9v-24.3l8.9-2.8v41.4l-9.4,3c-0.7-1.4-1.5-3.2-2.6-5.3
			c-1-2.1-2.1-4.3-3.3-6.6c-0.9-1.8-1.8-3.5-2.6-5.1c-0.8-1.6-1.5-2.9-1.9-3.7l-0.4,0.1v24l-8.7,2.8V209l10.1-3.2l5.6,12.3
			c0.7,1.5,1.4,3,2,4.4c0.7,1.5,1.3,3,2,4.4L230.5,226.9L230.5,226.9z M251.5,215.9c-1.7,0.6-3.2,0.8-4.4,0.6
			c-1.2-0.2-2.1-0.6-2.8-1.4c-0.7-0.7-1.2-1.7-1.5-2.8c-0.3-1.1-0.5-2.4-0.5-3.7c0-1.3,0.1-2.5,0.4-3.9c0.3-1.3,0.8-2.6,1.5-3.8
			c0.7-1.2,1.7-2.3,2.9-3.3c1.2-1,2.7-1.8,4.5-2.3c1.7-0.6,3.2-0.7,4.4-0.6c1.2,0.2,2.2,0.6,2.9,1.3s1.2,1.6,1.5,2.7
			c0.3,1.1,0.5,2.4,0.5,3.7c0,1.3-0.1,2.6-0.4,3.9c-0.3,1.3-0.8,2.6-1.5,3.8c-0.7,1.2-1.7,2.3-2.9,3.3
			C254.9,214.6,253.3,215.3,251.5,215.9L251.5,215.9z M243.2,226.1v-4.5l16.9-5.4v4.5L243.2,226.1z M251.6,200.1c-1,0.3-1.6,1-1.9,2
			c-0.3,1-0.5,2.4-0.5,4c0,1.9,0.2,3.2,0.5,4.1c0.3,0.9,1,1.2,1.9,0.9c0.9-0.3,1.5-1,1.9-2c0.3-1,0.5-2.5,0.5-4.4
			c0-1.6-0.1-2.8-0.4-3.7C253.2,200.1,252.6,199.8,251.6,200.1L251.6,200.1z"/>
		<path class="st0" d="M220,400.1c-3.9-3-9.6-6.1-17.9-8.8c3.1-1.1,6.7-2,10.8-2.8l0.2-1.7c-5.5,1-10.4,2.1-14.6,3.4
			c-4.2-1.2-9.1-2.4-14.6-3.3l0.2,1.7c4.1,0.7,7.7,1.7,10.9,2.8c-8.3,2.8-14,5.9-17.9,8.9l9.5,0c3-2.6,6.8-5.3,12-7.5
			c0.1,0,0.2,0.1,0.3,0.1c5.1,2.2,8.8,4.8,11.8,7.4L220,400.1z"/>
	</g>
</g>
</svg>
