<svg width="56" height="48" viewBox="0 0 56 48" fill="none" xmlns="http://www.w3.org/2000/svg">
<path d="M43.7445 12.8525H43.338L42.9872 16.3088C42.9749 16.4651 42.9414 16.6189 42.8876 16.7658C42.8439 16.8822 42.7727 16.9859 42.6803 17.0675C42.575 17.1536 42.4556 17.2202 42.3276 17.264L42.8086 18.1909C43.2124 18.0684 43.5094 17.8792 43.6997 17.626C43.8899 17.3728 44.0101 17.0008 44.0586 16.5154L44.3278 13.986H45.9834V18.0995H47.0691V12.8525H43.7445Z" fill="#0D6BB4"/>
<path d="M49.007 15.9596H50.3413V14.8352H49.007V13.9778H51.4343V12.8525H47.9194V18.1023H51.5725V16.9706H49.007V15.9596Z" fill="#0D6BB4"/>
<path d="M51.9272 12.8525V13.9952H53.31V18.1023H54.3958V13.9952H55.7858V12.8525H51.9272Z" fill="#0D6BB4"/>
<path d="M47.9239 20.6115H49.6117V29.1483C49.6131 30.0148 49.4444 30.8727 49.1156 31.6717C48.7867 32.4708 48.3043 33.1948 47.6968 33.8011C47.3406 34.1592 46.9453 34.4745 46.5186 34.7408C45.8008 34.4831 45.0781 34.2393 44.3507 34.0096C45.1635 33.7868 45.9056 33.3527 46.5043 32.7499C46.9557 32.2996 47.314 31.7618 47.5583 31.1682C47.8026 30.5747 47.9278 29.9373 47.9265 29.2937L47.9239 20.6115ZM49.9707 29.1483C49.9725 30.0631 49.7945 30.9691 49.4473 31.8127C49.1001 32.6564 48.5906 33.4208 47.949 34.0608C47.6414 34.3701 47.3061 34.6495 46.9476 34.8953C47.5805 35.1275 48.2101 35.3713 48.8364 35.6266C48.8957 35.5699 48.9549 35.5151 49.0159 35.4575C49.7963 34.6787 50.4159 33.7487 50.8383 32.7224C51.2607 31.696 51.4773 30.594 51.4755 29.4811V20.6142H49.9707V29.1483ZM51.8308 29.4811C51.833 30.6423 51.607 31.7923 51.1663 32.8633C50.7255 33.9342 50.0789 34.9046 49.2645 35.7171L49.2052 35.7756C49.5402 35.9146 49.8744 36.0563 50.2076 36.2007C52.0287 34.321 53.0474 31.7847 53.0422 29.1438V20.6115H51.8308V29.4811ZM26.1815 26.0696V10.0654C26.1828 9.46968 26.0671 8.8797 25.8412 8.33024C25.6153 7.78077 25.2837 7.28292 24.866 6.86601C24.0123 6.00709 22.8588 5.5284 21.6589 5.53507C21.0739 5.53575 20.4947 5.65398 19.9545 5.88299C19.4144 6.112 18.9239 6.44729 18.5111 6.86967C18.0934 7.28677 17.7615 7.78458 17.535 8.33394C17.3085 8.88331 17.1919 9.4732 17.192 10.0691V28.9938C17.1909 29.7563 17.3825 30.5061 17.7483 31.1713C18.0577 30.6882 18.4027 30.2299 18.7803 29.8001C18.7247 29.5853 18.696 29.3641 18.695 29.1419V10.1522C18.695 8.59825 20.1469 7.06986 21.6248 7.06986C23.1808 7.06986 24.6515 8.56808 24.6515 10.1522V26.3018C25.1556 26.1883 25.6668 26.1107 26.1815 26.0696ZM27.0555 26.0349C27.4472 26.0351 27.8387 26.0562 28.2283 26.098V10.1925C28.2306 9.32603 28.0628 8.46788 27.7347 7.6685C27.4067 6.86913 26.9249 6.14469 26.3179 5.53781C25.0756 4.28833 23.3975 3.59202 21.6517 3.60173C20.7999 3.60139 19.9563 3.77223 19.1693 4.10445C18.3823 4.43667 17.6674 4.92375 17.0655 5.53781C16.458 6.14443 15.9753 6.86837 15.6457 7.66728C15.3162 8.46619 15.1463 9.32404 15.1461 10.1906V28.8485C15.1453 29.9743 15.4336 31.0807 15.9824 32.0579C16.4394 31.9812 16.8971 31.9096 17.3553 31.8431C17.4145 31.7353 17.4738 31.6283 17.5348 31.5223C17.0745 30.7624 16.8312 29.8868 16.8322 28.9938V10.0654C16.8322 9.42185 16.9582 8.78478 17.2029 8.19147C17.4476 7.59816 17.806 7.06053 18.2571 6.61006C18.7038 6.15431 19.2344 5.79279 19.8184 5.54621C20.4025 5.29963 21.0285 5.17284 21.6607 5.17308C22.9544 5.16662 24.1977 5.68306 25.1181 6.60915C25.5694 7.05958 25.9277 7.59738 26.172 8.19094C26.4162 8.78449 26.5415 9.4218 26.5404 10.0654V26.0522C26.7109 26.0394 26.8823 26.0349 27.0555 26.0349ZM13.5757 32.515C13.1456 31.4579 12.9248 30.3246 12.9261 29.1803V10.2071C12.9263 9.04567 13.1539 7.89597 13.5955 6.82522C14.037 5.75446 14.6838 4.78415 15.4978 3.97103C16.3041 3.14881 17.2616 2.49661 18.3156 2.05178C19.3695 1.60694 20.4992 1.37819 21.6401 1.37862C23.9762 1.36601 26.2218 2.2984 27.8837 3.97103C28.6972 4.78409 29.3429 5.7546 29.7828 6.82552C30.2228 7.89645 30.4481 9.04616 30.4456 10.2071V26.5696C30.8856 26.7132 31.3162 26.8848 31.7351 27.0834V10.1522C31.7377 8.81575 31.4778 7.49225 30.9708 6.25959C30.4638 5.02694 29.7199 3.91005 28.7829 2.97465C26.8777 1.05716 24.3039 -0.0125214 21.6257 0.000141058C20.3149 -0.000631329 19.0168 0.261842 17.8057 0.772548C16.5945 1.28326 15.4941 2.03218 14.5673 2.97648C13.6313 3.91251 12.8878 5.02919 12.3803 6.26126C11.8728 7.49333 11.6114 8.81609 11.6115 10.1522V29.1438C11.61 30.3948 11.8389 31.6351 12.2863 32.8002C12.7143 32.6996 13.1432 32.6055 13.5757 32.515ZM34.3041 10.5069C34.3043 9.34562 34.5318 8.19603 34.9734 7.12542C35.415 6.0548 36.0618 5.08466 36.8759 4.27177C37.6821 3.44943 38.6395 2.79716 39.6935 2.35231C40.7475 1.90746 41.8773 1.67878 43.0181 1.67936V2.045C41.9241 2.04469 40.8408 2.26413 39.8301 2.69077C38.8194 3.11741 37.9012 3.74288 37.128 4.53138C36.3479 5.31048 35.7281 6.24023 35.3048 7.26626C34.8816 8.29228 34.6634 9.39398 34.6631 10.5069V29.109C35.4129 29.8279 36.0615 30.6489 36.5905 31.5488C36.3084 30.7811 36.1641 29.968 36.1643 29.1483V10.4905C36.1646 9.57503 36.3441 8.66885 36.6925 7.82502C37.0409 6.98118 37.5511 6.21665 38.1932 5.57621C38.831 4.92796 39.5873 4.41336 40.4195 4.06153L40.5568 4.39975C39.7675 4.73319 39.0502 5.22109 38.4453 5.83581C37.8378 6.44243 37.3552 7.16636 37.0256 7.96528C36.696 8.76419 36.5262 9.62204 36.5259 10.4886V29.1483C36.5246 30.2287 36.789 31.2922 37.2949 32.2417C38.0726 32.3861 38.8449 32.5458 39.6119 32.7207C39.1689 32.2713 38.8174 31.7372 38.5775 31.1491C38.3376 30.561 38.214 29.9305 38.2138 29.2937V10.3661C38.2138 9.72237 38.3399 9.08507 38.5847 8.49158C38.8295 7.89809 39.1882 7.36036 39.6397 6.90989L39.8918 7.1695C39.4741 7.5866 39.1423 8.0844 38.9158 8.63377C38.6893 9.18314 38.5727 9.77302 38.5728 10.3689V29.2937C38.5727 29.8895 38.6893 30.4794 38.9158 31.0288C39.1423 31.5782 39.4741 32.076 39.8918 32.4931C40.0356 32.6377 40.1885 32.7727 40.3495 32.8971C41.4478 33.1622 42.5384 33.4584 43.6211 33.7856C44.6138 33.6638 45.5384 33.2091 46.2494 32.4931C46.6671 32.0761 46.9987 31.5783 47.2246 31.0288C47.4505 30.4793 47.5662 29.8894 47.5649 29.2937V20.6096H45.9569V29.1419C45.9569 30.727 44.4862 32.2252 42.9311 32.2252C41.4523 32.2252 40.0013 30.6977 40.0013 29.1419V10.1522C40.0013 8.59825 41.4523 7.06986 42.9311 7.06986C44.4862 7.06986 45.9569 8.56808 45.9569 10.1522V10.6751H53.0458V10.1522C53.0483 8.8157 52.7883 7.49216 52.2811 6.25952C51.7739 5.02687 51.0299 3.91001 50.0927 2.97465C48.1867 1.05569 45.6109 -0.0141347 42.9311 0.000141058C41.6203 -0.000730987 40.3221 0.261697 39.111 0.772409C37.8998 1.28312 36.7994 2.0321 35.8727 2.97648C34.9367 3.91251 34.1932 5.02919 33.6857 6.26126C33.1782 7.49333 32.9168 8.81609 32.9169 10.1522V27.7379C33.4049 28.0481 33.8687 28.3962 34.3041 28.779V10.5069ZM3.23578 36.4292C5.54808 35.4814 7.91554 34.6797 10.3247 34.0288V0.689379H0.00538378V1.67936H8.76784V19.7595H8.40891V2.045H0V3.57888H6.8978V21.6865H6.53886V3.94452H0V5.52044H4.99096V23.0969H4.63203V5.88609H0V7.71431H3.23578V36.4292ZM21.6374 1.74426C20.5434 1.74395 19.46 1.96339 18.4493 2.39003C17.4386 2.81667 16.5205 3.44214 15.7473 4.23064C14.9672 5.00997 14.3474 5.93989 13.9242 6.96605C13.5009 7.99222 13.2827 9.09402 13.2823 10.2071V29.1803C13.2822 30.3003 13.5041 31.4087 13.9347 32.4391C14.4904 32.3258 15.0474 32.2203 15.6055 32.1228C15.068 31.1184 14.7866 29.9925 14.7871 28.8485V10.1906C14.7863 9.2762 14.9644 8.37078 15.311 7.5273C15.6577 6.68382 16.166 5.91921 16.8061 5.27821C17.442 4.62951 18.1974 4.11517 19.029 3.76472C19.8605 3.41427 20.7518 3.23462 21.6517 3.23609C23.4915 3.22634 25.26 3.96042 26.5691 5.27729C27.2107 5.91759 27.72 6.68212 28.0672 7.52591C28.4144 8.3697 28.5924 9.27571 28.5908 10.1906V26.1437C29.0979 26.2148 29.5995 26.3217 30.0921 26.4636V10.2071C30.0939 9.09417 29.8773 7.99213 29.4549 6.96577C29.0325 5.93941 28.4129 5.00946 27.6325 4.23064C26.0365 2.6253 23.8802 1.73102 21.6374 1.74426Z" fill="url(#paint0_linear_3527_9740)"/>
<path d="M52.1342 40.0879C36.0423 32.4844 18.0212 32.4844 1.92843 40.0879C1.50309 38.9855 1.07806 37.8837 0.65332 36.7825C17.5537 28.7886 36.5098 28.7886 53.4102 36.7825L52.1342 40.0879Z" fill="white"/>
<path d="M49.3525 47.2947C35.0122 40.5431 19.0478 40.544 4.70927 47.2947L3.43506 43.9893C18.5758 36.8473 35.4887 36.8473 50.6294 43.9893C50.2029 45.0905 49.7772 46.1923 49.3525 47.2947Z" fill="#E52A18"/>
<path d="M50.6209 44.0076C35.4847 36.8684 18.5772 36.8684 3.44094 44.0076L1.90381 40.0248C18.0118 32.4149 36.0509 32.4149 52.1544 40.0248L50.6209 44.0076Z" fill="#0D6BB4"/>
<path d="M47.5941 41.6625C47.4503 41.7068 47.2955 41.6961 47.1589 41.6323C46.8897 41.5263 46.7398 41.3032 46.7183 40.9714L46.1969 40.9851C46.193 41.2299 46.2638 41.4698 46.3997 41.6716C46.5442 41.8752 46.7461 42.0292 46.9785 42.1131C47.1619 42.1887 47.36 42.22 47.5573 42.2046C47.731 42.1911 47.898 42.1305 48.041 42.0291C48.1821 41.9253 48.2893 41.7807 48.3487 41.614C48.4133 41.4518 48.4298 41.2739 48.3963 41.1021C48.3621 40.9354 48.2773 40.7839 48.154 40.6689C48.2946 40.6489 48.4267 40.5883 48.5345 40.4943C48.6442 40.4029 48.7284 40.2837 48.7786 40.1487C48.8398 39.9946 48.8557 39.8256 48.8243 39.6624C48.7923 39.5039 48.7184 39.3573 48.6108 39.2383C48.5087 39.1209 48.3838 39.0264 48.244 38.9607C48.1042 38.895 47.9526 38.8596 47.7986 38.8566C47.6447 38.8537 47.4919 38.8834 47.3498 38.9437C47.2077 39.004 47.0794 39.0938 46.9731 39.2072L47.3581 39.5619C47.4425 39.4768 47.549 39.4178 47.665 39.3918C47.773 39.3671 47.8859 39.376 47.9889 39.4174C48.1055 39.4571 48.2022 39.5418 48.2581 39.6533C48.283 39.7074 48.2964 39.7662 48.2973 39.8259C48.2982 39.8856 48.2867 39.9449 48.2635 39.9997C48.2445 40.0567 48.2141 40.109 48.1743 40.1533C48.1344 40.1977 48.086 40.2332 48.032 40.2575C47.9159 40.3029 47.787 40.3 47.673 40.2493L47.4227 40.1487L47.2432 40.6286L47.507 40.7301C47.6477 40.779 47.7676 40.8758 47.8462 41.0043C47.8754 41.0638 47.8922 41.1287 47.8954 41.1951C47.8987 41.2615 47.8883 41.3278 47.865 41.3899C47.8417 41.4519 47.806 41.5084 47.7601 41.5556C47.7143 41.6029 47.6592 41.6399 47.5986 41.6643L47.5941 41.6625Z" fill="white"/>
<path d="M41.2548 39.6025L39.723 39.2159C39.7747 39.121 39.8446 39.0377 39.9285 38.9709C40.0204 38.9007 40.1212 38.8435 40.2282 38.8009C40.3596 38.7464 40.4938 38.6994 40.6302 38.6601C40.7926 38.608 40.9434 38.5504 41.0843 38.4892C41.2191 38.4279 41.341 38.3407 41.4432 38.2323C41.5516 38.1058 41.6272 37.9537 41.663 37.7899C41.7076 37.6238 41.7076 37.4486 41.663 37.2825C41.6148 37.1202 41.5213 36.9757 41.3938 36.8666C41.2264 36.7295 41.0285 36.6362 40.8174 36.5951C40.6064 36.554 40.3887 36.5662 40.1833 36.6308C39.9729 36.702 39.7915 36.8421 39.6674 37.0293L40.073 37.3566C40.1444 37.2503 40.244 37.167 40.3601 37.1162C40.4866 37.0633 40.6272 37.0572 40.7576 37.0988C40.8902 37.1253 41.0079 37.2021 41.087 37.3136C41.1208 37.3641 41.1435 37.4215 41.1532 37.4818C41.163 37.5421 41.1597 37.6039 41.1435 37.6628C41.1232 37.7576 41.0739 37.8434 41.0026 37.9078C40.9285 37.9726 40.8441 38.0242 40.7532 38.0604C40.6537 38.1025 40.5522 38.1391 40.449 38.1701C40.2918 38.2181 40.1375 38.2751 39.9868 38.3411C39.8354 38.4074 39.6943 38.4958 39.5678 38.6034C39.4336 38.7144 39.3184 38.8472 39.2268 38.9965C39.1206 39.1741 39.0431 39.3679 38.9971 39.5705L41.1273 40.108L41.2512 39.6007L41.2548 39.6025Z" fill="white"/>
<path d="M43.7188 40.8807L45.7979 41.5937L45.9612 41.0991L44.4671 40.5872C44.5269 40.4974 44.603 40.4201 44.6915 40.3596C44.7896 40.2986 44.8948 40.2501 45.0046 40.2152C45.1398 40.172 45.2773 40.1369 45.4165 40.1101C45.5746 40.0775 45.7302 40.0335 45.8822 39.9784C46.0235 39.9296 46.1538 39.8526 46.2654 39.7517C46.3828 39.632 46.4706 39.4855 46.5215 39.3243C46.5724 39.1631 46.5849 38.9919 46.5579 38.8248C46.5243 38.6592 46.4442 38.5071 46.3273 38.387C46.1902 38.2461 46.0209 38.1422 45.8347 38.0844C45.6112 38.0035 45.3692 37.9917 45.1392 38.0506C44.9245 38.1057 44.7329 38.2298 44.5928 38.4044L44.9714 38.7636C45.0513 38.6642 45.157 38.5897 45.2765 38.5488C45.4071 38.5084 45.5473 38.5145 45.674 38.5661C45.8039 38.6029 45.915 38.6889 45.9845 38.8066C46.0141 38.8601 46.0319 38.9195 46.0367 38.9808C46.0415 39.042 46.0332 39.1036 46.0123 39.1612C45.9836 39.2537 45.9275 39.3348 45.8517 39.3934C45.7725 39.4522 45.6838 39.4965 45.5897 39.5241C45.4883 39.5595 45.3845 39.5873 45.2792 39.6073C45.1189 39.6416 44.9607 39.6856 44.8054 39.739C44.6508 39.7949 44.5035 39.8698 44.3666 39.962C44.224 40.0631 44.0981 40.1865 43.9933 40.3276C43.8731 40.494 43.7804 40.6793 43.7188 40.8761V40.8807Z" fill="white"/>
<path d="M42.2188 39.1707C42.2388 39.027 42.2688 38.885 42.3085 38.7457C42.3479 38.6097 42.3961 38.4765 42.453 38.3471C42.507 38.2262 42.5741 38.1118 42.6531 38.0061C42.7218 37.9155 42.8115 37.8436 42.9142 37.7968C43.0177 37.7527 43.1332 37.7478 43.2399 37.7831C43.3468 37.8097 43.4408 37.8746 43.5046 37.9659C43.5652 38.0615 43.6018 38.1707 43.6114 38.284C43.6236 38.4157 43.6194 38.5484 43.5989 38.6789C43.5573 38.961 43.4788 39.2362 43.3655 39.497C43.314 39.6189 43.2474 39.7334 43.1672 39.838C43.0996 39.9298 43.0108 40.0032 42.9088 40.0519C42.805 40.0922 42.6907 40.0955 42.5849 40.0611C42.4766 40.0348 42.3811 39.97 42.3157 39.8782C42.2535 39.7846 42.2158 39.6764 42.2062 39.5638C42.1928 39.4329 42.1958 39.3008 42.2152 39.1707H42.2188ZM41.9496 40.2512C42.0817 40.4009 42.2554 40.5061 42.4476 40.5528C42.6024 40.604 42.7669 40.6171 42.9276 40.5912C43.0692 40.566 43.2037 40.5095 43.3216 40.4258C43.4407 40.3362 43.5457 40.2287 43.633 40.1068C43.7265 39.9805 43.8059 39.8441 43.8698 39.7C43.9344 39.5567 43.9887 39.4088 44.0323 39.2576C44.0889 39.0619 44.1267 38.861 44.1453 38.6579C44.1646 38.4652 44.1546 38.2707 44.1157 38.0811C44.0789 37.9034 43.9987 37.738 43.8824 37.6003C43.7477 37.4528 43.5742 37.3478 43.3826 37.2977C43.2274 37.2467 43.0628 37.2333 42.9016 37.2584C42.76 37.2839 42.6255 37.3407 42.5077 37.4248C42.3893 37.5134 42.2843 37.6194 42.1963 37.7392C42.1047 37.8682 42.0262 38.0063 41.9621 38.1515C41.8979 38.2943 41.8436 38.4415 41.7997 38.5921C41.7446 38.7868 41.7074 38.9863 41.6884 39.1881C41.6685 39.3822 41.6778 39.5783 41.7162 39.7695C41.753 39.9475 41.8333 40.1132 41.9496 40.2512Z" fill="white"/>
<path d="M14.0698 38.3643C13.951 38.2457 13.7989 38.1677 13.6346 38.1412C13.7391 38.0439 13.8159 37.9199 13.8572 37.782C13.8983 37.6427 13.9033 37.495 13.8715 37.3533C13.8394 37.192 13.7625 37.0435 13.6499 36.9255C13.5366 36.8104 13.3949 36.7286 13.2398 36.6887C13.067 36.6493 12.8877 36.6493 12.7149 36.6887C12.5011 36.735 12.3049 36.8429 12.1495 36.9995C11.9963 37.1602 11.8946 37.3645 11.8579 37.5854L12.3703 37.6641C12.3945 37.5455 12.4507 37.4363 12.5327 37.3487C12.6094 37.2668 12.7096 37.2117 12.819 37.1915C12.877 37.175 12.9376 37.1705 12.9973 37.178C13.0571 37.1855 13.1148 37.205 13.1671 37.2353C13.2173 37.267 13.2603 37.3091 13.2934 37.3589C13.3265 37.4086 13.3489 37.465 13.3591 37.5242C13.3745 37.5818 13.3777 37.6421 13.3684 37.701C13.3591 37.76 13.3376 37.8162 13.3053 37.8661C13.2703 37.9179 13.2254 37.9619 13.1733 37.9955C13.1212 38.0291 13.0629 38.0516 13.002 38.0617L12.7391 38.1193L12.8477 38.622L13.124 38.5562C13.2676 38.519 13.4194 38.5332 13.5539 38.5964C13.6118 38.6263 13.662 38.6695 13.7005 38.7227C13.739 38.7759 13.7647 38.8375 13.7755 38.9027C13.7927 38.9676 13.795 39.0356 13.7823 39.1015C13.7695 39.1675 13.742 39.2296 13.7019 39.2829C13.6063 39.4006 13.4715 39.4784 13.3233 39.5014C13.0397 39.5672 12.798 39.4667 12.5982 39.1998L12.1693 39.5014C12.2985 39.7064 12.4865 39.8659 12.7077 39.9585C12.9374 40.0452 13.1873 40.0605 13.4256 40.0023C13.6216 39.9624 13.8059 39.8767 13.964 39.7519C14.1025 39.6453 14.2094 39.5016 14.2726 39.3369C14.3339 39.1703 14.3451 38.9889 14.3049 38.8158C14.2702 38.6436 14.188 38.4851 14.068 38.3588L14.0698 38.3643Z" fill="white"/>
<path d="M10.5103 40.1403C10.5112 40.0317 10.5338 39.9244 10.5767 39.825C10.6246 39.7187 10.6849 39.6186 10.7562 39.527C10.8458 39.4154 10.9414 39.3089 11.0424 39.2079C11.1569 39.0918 11.2631 38.9675 11.3601 38.8359C11.4512 38.7168 11.518 38.5803 11.5566 38.4346C11.5939 38.2709 11.5883 38.1 11.5405 37.9392C11.5005 37.7728 11.4171 37.6205 11.2991 37.4985C11.1814 37.3783 11.0316 37.296 10.8683 37.2618C10.6572 37.2236 10.44 37.2387 10.2358 37.3058C10.0317 37.3729 9.84681 37.4899 9.69733 37.6466C9.54817 37.812 9.45533 38.022 9.43262 38.2454L9.9423 38.3368C9.95732 38.2083 10.0049 38.0861 10.0805 37.9821C10.1684 37.8767 10.2884 37.8042 10.4215 37.7764C10.4849 37.7544 10.552 37.7454 10.6189 37.7501C10.6858 37.7548 10.7511 37.7731 10.8109 37.8039C10.865 37.831 10.9124 37.8701 10.9497 37.9183C10.987 37.9666 11.0131 38.0227 11.0263 38.0827C11.0527 38.176 11.0495 38.2755 11.0173 38.367C10.9841 38.4598 10.9349 38.5459 10.8719 38.6211C10.8046 38.7066 10.7327 38.7884 10.6566 38.8661C10.5402 38.9838 10.4317 39.1093 10.3317 39.2418C10.2311 39.3746 10.1484 39.5207 10.0859 39.676C10.0215 39.8393 9.98361 40.0122 9.97371 40.1879C9.96392 40.3957 9.98726 40.6037 10.0428 40.804L12.165 40.2354L12.034 39.7281L10.5085 40.1394L10.5103 40.1403Z" fill="white"/>
<path d="M8.72309 39.1344C8.70048 39.2278 8.65224 39.3128 8.584 39.3794C8.50779 39.453 8.41554 39.5072 8.3148 39.5375C8.21002 39.5702 8.09973 39.5805 7.99086 39.5677C7.89663 39.5528 7.80869 39.5102 7.73782 39.4452C7.66333 39.3718 7.60916 39.2798 7.58078 39.1783C7.55076 39.0836 7.54734 38.9823 7.57091 38.8858C7.59537 38.792 7.64511 38.7072 7.71448 38.6408C7.79425 38.5636 7.89174 38.5079 7.99804 38.479C8.09618 38.4434 8.20198 38.4359 8.30403 38.457C8.39583 38.4715 8.48154 38.5128 8.5508 38.5759C8.62318 38.643 8.67623 38.729 8.70424 38.8245C8.73618 38.9233 8.74145 39.0291 8.7195 39.1307L8.72309 39.1344ZM9.00664 38.2815C8.87899 38.128 8.70938 38.0166 8.51939 37.9616C8.30125 37.9065 8.07193 37.9189 7.86075 37.9972C7.66529 38.0533 7.48609 38.1568 7.3385 38.2989C7.205 38.4286 7.10934 38.5935 7.06212 38.7751C7.01971 38.9636 7.02566 39.16 7.07942 39.3454C7.13317 39.5308 7.2329 39.699 7.36901 39.8337C7.49937 39.9554 7.65971 40.0388 7.83293 40.075C8.01631 40.1094 8.20525 40.0959 8.3821 40.0357C8.5005 40.0015 8.61159 39.9451 8.70963 39.8693C8.78991 39.8084 8.85659 39.7308 8.90525 39.6417C8.92158 39.839 8.89239 40.0375 8.82 40.2213C8.75406 40.3864 8.65434 40.5354 8.52747 40.6582C8.40381 40.7766 8.26156 40.873 8.10662 40.9434L8.25019 41.4197C8.57472 41.2977 8.86002 41.0871 9.07484 40.8109C9.26815 40.5534 9.388 40.2466 9.42121 39.9242C9.45604 39.5685 9.41815 39.2093 9.30994 38.8693C9.24858 38.6534 9.14478 38.4525 9.00485 38.2788L9.00664 38.2815Z" fill="white"/>
<path d="M5.98764 38.6752C5.99047 38.7624 5.97066 38.8488 5.93021 38.9257C5.88962 38.9974 5.83307 39.0585 5.7651 39.1039C5.68574 39.1559 5.60007 39.197 5.51025 39.2264L5.63947 39.6167L6.12134 39.4504L6.91638 41.8216L7.41798 41.6461L6.37798 38.5381L5.98764 38.6725V38.6752Z" fill="white"/>
<path d="M26.9655 25.3682C24.7684 25.3682 22.6207 26.0319 20.7939 27.2754C18.9671 28.5189 17.5434 30.2864 16.7027 32.3542C15.8621 34.422 15.6422 36.6974 16.0711 38.8925C16.4999 41.0876 17.5581 43.1039 19.1119 44.6863C20.6656 46.2688 22.6451 47.3463 24.8001 47.7826C26.955 48.2189 29.1886 47.9944 31.2183 47.1375C33.2479 46.2806 34.9826 44.8298 36.2029 42.9686C37.4231 41.1074 38.0741 38.9193 38.0736 36.6812C38.0731 33.6805 36.9026 30.8028 34.8194 28.6812C32.7363 26.5597 29.9112 25.3679 26.9655 25.3682Z" fill="white"/>
<path d="M33.7158 36.6757C33.05 36.7863 31.6519 36.449 31.6519 36.449C31.6223 36.5103 31.5918 36.5807 31.5622 36.6419C32.4856 37.1904 33.7858 37.1273 33.985 37.1145L34.0101 37.1401C33.9949 37.801 33.365 37.9802 32.814 37.9016C32.3429 37.8357 31.6825 37.5121 31.2158 37.1492C31.1697 37.2032 31.1202 37.2542 31.0678 37.3019C31.5165 38.0506 32.5609 38.3604 32.9028 38.387L32.9226 38.418C32.7 38.8111 32.1939 38.9473 31.643 38.6758C31.3155 38.5104 30.9036 38.0853 30.6254 37.6127C30.5608 37.6429 30.4971 37.6648 30.4271 37.6922C30.6003 38.5926 31.4698 39.1402 31.6232 39.227L31.6286 39.2618C31.3648 39.5588 30.7699 39.5643 30.4073 39.1347C30.1839 38.8678 30.0107 38.3742 29.9165 37.7791C29.7991 37.7825 29.6826 37.8 29.5692 37.8312C29.5701 37.5516 29.5264 37.2738 29.44 37.0085C29.5431 37.007 29.646 36.9982 29.7478 36.982C29.9762 36.9461 30.185 36.8298 30.3378 36.6532C30.4906 36.4766 30.5778 36.2511 30.5841 36.0158C30.5834 35.8825 30.5551 35.7508 30.5012 35.6294C30.4472 35.508 30.3688 35.3995 30.271 35.311C30.2606 35.3028 30.2523 35.2921 30.247 35.2798C30.2417 35.2676 30.2395 35.2542 30.2406 35.2408C30.2416 35.2275 30.246 35.2146 30.2532 35.2034C30.2603 35.1922 30.2702 35.183 30.2817 35.1766L30.3409 35.1364C32.0136 34.0468 33.5372 31.5229 33.6997 31.2478L33.7356 31.2423C34.2515 31.7066 34.3018 32.6134 33.7607 33.3255C33.4017 33.7981 32.6534 34.3137 31.8844 34.7598C31.8985 34.8426 31.9069 34.9262 31.9095 35.0102C33.4924 34.6601 34.5001 33.5394 34.658 33.3511H34.6984C34.9855 33.938 34.7325 34.7223 34.16 35.0532C33.6539 35.3421 32.8544 35.5176 31.8772 35.6346C31.8673 35.705 31.8521 35.7744 31.8377 35.8494C32.7987 35.9766 33.7754 35.8202 34.6517 35.3987L34.6912 35.4298C34.7657 36.0587 34.378 36.5578 33.7185 36.6712L33.7158 36.6757ZM31.0462 40.3322L31.389 39.9601L31.73 40.3322L31.389 40.6603L31.0462 40.3322ZM31.5075 42.3971C31.3323 42.4187 31.1547 42.3905 30.9943 42.3157C30.8338 42.2408 30.6969 42.1222 30.5985 41.973C30.3113 41.6841 29.5818 41.4648 28.9914 41.4648C28.9722 41.4656 28.9532 41.4614 28.9361 41.4525C28.9191 41.4437 28.9046 41.4304 28.8941 41.4141C28.8836 41.3977 28.8774 41.3789 28.8762 41.3594C28.875 41.3399 28.8788 41.3205 28.8873 41.303C29.1251 40.717 28.6181 40.2974 28.0877 40.6384C27.8598 40.7956 27.6211 41.0845 27.4479 41.579C28.3112 41.7975 29.3979 42.388 29.6168 43.0315C29.7065 43.2847 29.423 43.6257 29.0856 43.6924L29.056 43.6696C28.8765 42.707 27.8697 41.9904 27.3439 41.8679L27.299 41.9904C27.8697 42.2646 28.426 42.8515 28.5849 43.5444C28.6584 43.8643 28.3112 44.1522 28.024 44.2318L27.9944 44.2098C27.9388 43.3305 27.5574 42.5864 27.2191 42.2408C27.2093 42.3112 27.2048 42.377 27.1994 42.4419C27.1994 42.4419 27.5467 43.4356 27.5467 44.1614C27.5467 44.4987 27.0567 44.7309 26.9661 44.761C26.8925 44.7309 26.4061 44.4987 26.4061 44.1614C26.4061 43.4356 26.7534 42.4419 26.7534 42.4419C26.748 42.377 26.7435 42.3112 26.7337 42.2408C26.3909 42.5864 26.0158 43.3305 25.9593 44.2098L25.9297 44.2318C25.6416 44.1522 25.2952 43.8661 25.3688 43.5444C25.5268 42.8487 26.0867 42.2646 26.6547 41.9904C26.6287 41.9209 26.6341 41.9373 26.6089 41.8679C26.0831 41.9904 25.0754 42.7116 24.8968 43.6696L24.8672 43.6924C24.5253 43.6221 24.2463 43.2847 24.3288 43.0315C24.5469 42.3917 25.6344 41.7975 26.4968 41.579C26.3173 41.0845 26.0858 40.7874 25.857 40.6384C25.332 40.2974 24.8206 40.7216 25.0583 41.303C25.0671 41.3205 25.0712 41.3402 25.0701 41.3598C25.069 41.3795 25.0628 41.3985 25.0521 41.415C25.0414 41.4314 25.0267 41.4447 25.0093 41.4534C24.992 41.4622 24.9727 41.4661 24.9534 41.4648C24.4329 41.4648 23.8021 41.6311 23.4656 41.8761L23.8819 42.2747C23.9126 42.3029 23.9321 42.3416 23.9367 42.3834C23.9373 42.4199 23.9271 42.4557 23.9075 42.4863C23.888 42.5168 23.8599 42.5407 23.8269 42.5548C23.7939 42.569 23.7575 42.5728 23.7224 42.5657C23.6872 42.5586 23.655 42.541 23.6298 42.5151L23.2215 42.1257C23.0908 42.2062 22.9347 42.2327 22.7854 42.1997C22.6746 42.1798 22.5723 42.1261 22.4921 42.0456C22.412 41.9651 22.3578 41.8617 22.3367 41.749C22.3136 41.6152 22.3419 41.4774 22.4157 41.3642L20.8624 39.855L20.7879 39.8907C20.6237 39.9912 20.429 39.8632 20.4362 39.7764C20.3168 39.8907 19.7757 39.9245 19.6169 39.365C19.7264 39.3778 19.9498 39.3742 19.9498 39.3742C19.9498 39.3742 19.6806 38.9546 19.8754 38.7179C20.0934 38.5085 20.5304 38.7489 20.5304 38.7489C20.5304 38.7489 20.5205 38.5259 20.5053 38.4162C21.0661 38.5424 21.0616 39.0899 20.9629 39.2115C21.0464 39.1987 21.1855 39.387 21.0957 39.5625L21.0814 39.5927L22.6966 41.1466C22.7644 41.1199 22.8365 41.1065 22.9092 41.1073C22.9896 41.1061 23.0694 41.1217 23.1437 41.1532C23.2179 41.1846 23.285 41.2312 23.3409 41.2902C23.7429 41.3423 24.6016 41.1375 24.5217 41.0159C23.777 39.9391 24.1 39.2224 24.6958 39.0122C24.9052 39.4485 25.2303 39.8165 25.6342 40.0745C26.038 40.3326 26.5047 40.4704 26.9815 40.4725C27.4582 40.4746 27.9261 40.3409 28.3321 40.0864C28.7382 39.8319 29.0663 39.4668 29.2794 39.0323C29.8447 39.2645 30.1283 39.9729 29.4032 41.0196C29.3243 41.1421 30.1579 41.334 30.4648 41.2938C30.5267 41.0612 30.6746 40.862 30.8776 40.738L31.389 41.154L31.8996 40.738C32.0681 40.8312 32.2018 40.9784 32.2798 41.1569C32.3578 41.3353 32.3759 41.535 32.3312 41.7249C32.2866 41.9149 32.1816 42.0845 32.0327 42.2075C31.8838 42.3305 31.6992 42.4001 31.5075 42.4054V42.3971ZM19.2499 35.4033L19.2849 35.3859C20.1608 35.8109 21.1394 35.9662 22.1007 35.8329C22.0855 35.7635 22.0711 35.6885 22.0613 35.619C21.0787 35.5002 20.2854 35.3347 19.7784 35.0404C19.1979 34.7131 18.9448 33.9252 19.24 33.3392H19.2795C19.4446 33.5221 20.4461 34.6473 22.029 34.9929C22.0311 34.909 22.038 34.8254 22.0496 34.7424C21.2797 34.2972 20.5304 33.7798 20.1733 33.3118C19.6349 32.5952 19.6878 31.6893 20.1984 31.2249L20.2325 31.2304C20.3967 31.5046 21.9204 34.0349 23.5921 35.1236L23.6576 35.1629C23.668 35.17 23.6766 35.1794 23.6829 35.1903C23.6892 35.2013 23.6929 35.2136 23.6939 35.2263C23.6948 35.2389 23.6929 35.2517 23.6884 35.2635C23.6838 35.2753 23.6767 35.2859 23.6675 35.2945C23.5696 35.3828 23.4912 35.4911 23.4372 35.6124C23.3833 35.7337 23.355 35.8652 23.3543 35.9984C23.3605 36.2341 23.4478 36.4601 23.601 36.6369C23.7543 36.8137 23.9636 36.93 24.1924 36.9655C24.314 36.9883 24.4377 36.9969 24.5612 36.9911C24.475 37.2581 24.431 37.5373 24.4311 37.8184V37.8357C24.2997 37.793 24.1626 37.7708 24.0246 37.7699C23.9304 38.3696 23.7554 38.8595 23.5329 39.1219C23.1659 39.5552 22.57 39.547 22.3116 39.2535L22.3179 39.2133C22.4704 39.1219 23.34 38.5734 23.5131 37.6831C23.4452 37.6601 23.3789 37.6323 23.3148 37.5999C23.0313 38.0816 22.6248 38.5003 22.2973 38.663C21.7463 38.9372 21.2393 38.8065 21.0168 38.4089L21.0374 38.3778C21.3793 38.3522 22.4265 38.046 22.8724 37.2937C22.8186 37.2407 22.7693 37.1931 22.7244 37.1401C22.2578 37.5057 21.5982 37.8266 21.1271 37.8924C20.5699 37.9674 19.9453 37.7873 19.9301 37.1319L19.9552 37.1054C20.1481 37.1145 21.4484 37.1748 22.378 36.6282C22.3484 36.567 22.3188 36.5057 22.2883 36.4408C22.2883 36.4408 20.8884 36.7763 20.2244 36.6456C19.564 36.5331 19.1772 36.0295 19.2517 35.4033H19.2499ZM21.5525 31.4004C21.5973 31.1426 22.1537 31.2176 22.352 31.0942C22.7109 30.8629 23.1309 29.9698 23.4082 30.8629C22.8931 31.3529 23.1955 32.0787 23.8505 32.0787V32.192C23.0654 32.1527 22.7935 31.5586 22.9371 31.0896C22.9622 31.0028 22.1295 31.0028 22.1295 31.5321C22.1295 31.8904 22.6257 32.0604 22.6257 32.4288C22.6187 32.4965 22.5925 32.5607 22.5502 32.6134C22.508 32.6662 22.4516 32.7053 22.3879 32.7259C22.5162 32.1271 21.9904 32.437 21.8495 32.5513C22.1321 31.746 21.4906 31.7551 21.5516 31.4004H21.5525ZM24.2822 31.171L24.6689 31.5293L25.0557 31.171C25.3536 31.171 25.5573 31.3766 25.3984 31.8182C25.3663 31.8899 25.3281 31.9587 25.2845 32.0238C25.6434 31.9754 26.1037 31.7222 26.2024 31.1829C26.0804 30.9867 25.9693 30.7838 25.8695 30.575C25.6317 29.9406 25.9395 29.6837 26.3864 29.6837L26.9616 30.3784L27.5368 29.6837C27.9854 29.6837 28.2914 29.9461 28.0536 30.575C27.9539 30.7838 27.8428 30.9867 27.7207 31.1829C27.8194 31.7222 28.2816 31.9754 28.6387 32.0238C28.5954 31.9585 28.5573 31.8897 28.5247 31.8182C28.3659 31.3766 28.5696 31.171 28.8675 31.171L29.2543 31.5293L29.6383 31.171C29.9362 31.171 30.1399 31.3766 29.9811 31.8182C29.918 31.9469 29.8432 32.0693 29.7577 32.1838H28.7473C27.8993 32.1838 27.5126 31.6454 27.4013 31.1783H26.5336C26.4196 31.6427 26.0382 32.1838 25.1876 32.1838H24.1646C24.0808 32.0681 24.006 31.9459 23.9412 31.8182C23.7823 31.3766 23.986 31.171 24.2839 31.171H24.2822ZM24.6689 30.1856L24.9381 30.5229L24.6689 30.8556L24.3997 30.5229L24.6689 30.1856ZM26.9616 28.6023L27.3439 29.0749L26.9616 29.5777L26.5793 29.0749L26.9616 28.6023ZM29.2543 30.1856L29.5235 30.5229L29.2543 30.8556L28.9851 30.5229L29.2543 30.1856ZM27.5493 38.7435C27.5592 38.6822 27.6184 38.6246 27.6041 38.5424C27.5897 38.4601 27.6041 38.3842 27.6489 38.3796C27.6938 38.3751 27.6938 38.4016 27.8769 38.2754C28.0668 38.1637 28.2507 38.0416 28.4278 37.9098C28.5023 37.844 28.5265 37.8001 28.5176 37.727C28.5078 37.6884 28.4905 37.6523 28.4666 37.6209C28.4427 37.5895 28.4127 37.5633 28.3785 37.5441C28.3785 37.5441 28.6019 37.5569 28.7006 37.5743C28.7993 37.5917 28.8801 37.6657 28.8702 37.7626C28.8648 37.8367 28.7213 38.003 28.3193 38.2133C27.9603 38.4052 27.9513 38.4235 27.8823 38.4875C27.7885 38.5963 27.7041 38.7131 27.6301 38.8367C27.605 38.8723 27.5296 38.8111 27.5449 38.7499L27.5493 38.7435ZM28.0456 35.97C28.0456 35.97 28.3884 35.9033 28.453 36.0139C28.5176 36.1245 28.4574 36.2105 28.5122 36.2626C28.5669 36.3147 28.5122 36.5121 28.5122 36.5121L28.3435 36.503C28.3129 36.5406 28.2895 36.5837 28.2744 36.63C28.269 36.6776 28.3282 37.0194 28.2887 37.0981C28.2493 37.1767 28.0312 37.4637 28.0312 37.4637L27.7378 37.4381C27.7378 37.4381 27.9361 37.1794 27.9558 37.0789C27.9655 36.94 27.9573 36.8005 27.9316 36.6639L28.1048 36.6757C28.1449 36.5777 28.1735 36.4753 28.19 36.3704C28.1741 36.2265 28.1245 36.0886 28.0456 35.9682V35.97ZM24.8699 33.874C24.7345 33.8327 24.5913 33.8251 24.4524 33.8516C24.3135 33.8782 24.1828 33.9382 24.0713 34.0267C24.0768 33.9321 24.1041 33.8401 24.1508 33.7582C24.1976 33.6763 24.2625 33.6067 24.3405 33.555C24.5414 33.6132 24.7244 33.7231 24.8717 33.874H24.8699ZM23.838 33.3712C23.5544 33.4105 23.4656 33.6025 23.4512 33.6692C23.3561 33.5778 23.2673 33.2963 23.3014 33.1089C23.4611 32.224 25.4648 32.8109 26.477 32.4352C26.4968 32.6893 26.1701 33.1043 25.8489 33.2579C26.2751 33.6427 26.6682 34.3256 26.8611 35.1876C26.4748 35.206 26.098 35.3152 25.7601 35.5066C25.8695 34.5011 24.9157 33.2012 23.8344 33.3721L23.838 33.3712ZM26.0355 39.1548C26.1441 39.1365 26.879 38.4592 26.879 38.4592L26.7507 38.8915L26.1603 39.2572C26.1326 39.3208 26.1107 39.3869 26.0948 39.4546C26.0804 39.546 26.0508 39.6694 26.005 39.6868C25.97 39.695 25.9099 39.6466 25.8902 39.5643C25.8561 39.4025 25.9359 39.4327 25.9359 39.3321C25.9359 39.2709 25.9099 39.174 26.0391 39.1493L26.0355 39.1548ZM27.1626 37.9866C27.1191 37.9879 27.0778 38.0066 27.0477 38.0387C26.9293 38.1648 26.6116 38.4957 26.5273 38.5771C26.4232 38.6822 25.6883 39.1256 25.6533 39.1813C25.6183 39.2371 25.6093 39.3815 25.5635 39.5177C25.5178 39.6539 25.5106 39.6722 25.4577 39.6722C25.4236 39.6722 25.3491 39.483 25.3886 39.44C25.4675 39.3605 25.3536 39.2572 25.4236 39.1658C25.4532 39.1164 25.5626 39.1347 25.603 39.0552C25.7481 38.8647 25.9094 38.6876 26.0849 38.5259C26.1278 38.4968 26.1743 38.4734 26.2231 38.4564C26.2418 38.4501 26.2589 38.4398 26.2734 38.4262C26.288 38.4127 26.2995 38.3962 26.3074 38.3778C26.3873 38.195 26.6107 37.6383 26.8135 37.5286C27.1366 37.3586 27.0827 36.864 27.0827 36.864L25.7825 36.7187L25.7672 36.7242L25.7071 36.7763C25.6874 36.8028 25.6928 36.8119 25.6479 36.8119C25.603 36.8119 25.6183 36.7681 25.5492 36.737C25.4989 36.7105 25.3751 36.737 25.3607 36.737C25.2854 36.6986 25.4837 36.598 25.5492 36.6145C25.7376 36.6538 26.4223 36.6145 26.5066 36.6282C26.7303 36.6214 26.9529 36.5935 27.1716 36.545C27.1958 36.5313 26.705 36.3476 26.7642 36.173C27.0172 36.1684 27.4497 36.0413 27.5879 35.9975C27.7261 35.9536 27.8661 35.9801 27.8957 36.151V36.1638L27.9307 36.3037L27.9056 36.5267L27.7073 36.5139C27.6808 36.5587 27.6688 36.6109 27.6732 36.6629C27.6875 36.7242 27.7827 36.9372 27.7468 37.0606C27.7109 37.184 27.4776 37.4847 27.4201 37.5341C27.3995 37.5597 28.0599 37.5725 28.1541 37.599C28.1856 37.6074 28.2129 37.6271 28.2311 37.6545C28.2492 37.682 28.257 37.7152 28.2529 37.748C28.2484 37.8092 28.1541 37.9006 27.6247 38.2242C27.4292 38.3558 27.2486 38.5091 27.0863 38.6813L27.0065 38.7032C26.9996 38.6303 27.0187 38.5573 27.0603 38.4976C27.1402 38.4107 27.0711 38.2709 27.1303 38.2352C27.1554 38.2133 27.2146 38.2096 27.3044 38.2352C27.4174 38.1438 27.6023 37.9683 27.6023 37.9683L27.1536 37.9857L27.1626 37.9866ZM29.8546 34.0267C29.6114 33.8036 29.2588 33.8082 29.0551 33.874C29.2005 33.7213 29.3842 33.6122 29.5863 33.5586C29.6637 33.61 29.7283 33.6791 29.7751 33.7603C29.8218 33.8415 29.8493 33.9327 29.8555 34.0267H29.8546ZM28.1775 35.4746C27.8386 35.2928 27.4637 35.1916 27.0809 35.1784C27.2739 34.3247 27.666 33.6382 28.0922 33.2588C27.7809 33.1061 27.4479 32.6911 27.4641 32.4361C28.4718 32.8118 30.4764 32.2249 30.6416 33.1098C30.6757 33.2972 30.5859 33.5861 30.4917 33.6701C30.4604 33.589 30.4077 33.5183 30.3395 33.4657C30.2713 33.4131 30.1901 33.3807 30.1049 33.3721C29.0228 33.2058 28.0752 34.4746 28.1748 35.4746H28.1775ZM30.0682 32.0622C30.7277 32.0622 31.0256 31.3364 30.5096 30.8465C30.7869 29.9506 31.2087 30.8465 31.5658 31.0741C31.765 31.2011 32.3214 31.1262 32.3653 31.3803C32.4246 31.746 31.7892 31.746 32.0728 32.5394C31.9337 32.4352 31.4034 32.1244 31.5344 32.7149C31.4693 32.6965 31.4115 32.6579 31.3689 32.6045C31.3263 32.5511 31.301 32.4856 31.2966 32.4169C31.2966 32.0513 31.7919 31.884 31.7919 31.5247C31.7919 30.9909 30.9637 30.9991 30.9843 31.0786C31.1288 31.5558 30.856 32.1418 30.0673 32.1756V32.0659L30.0682 32.0622ZM26.9598 26.8573C25.0519 26.8586 23.1872 27.4361 21.6014 28.5169C20.0157 29.5977 18.7802 31.1332 18.0511 32.9293C17.322 34.7254 17.132 36.7014 17.5053 38.6074C17.8785 40.5135 18.7982 42.264 20.1479 43.6376C21.4977 45.0112 23.2171 45.9463 25.0885 46.3245C26.96 46.7028 28.8995 46.5073 30.6618 45.7627C32.4242 45.0181 33.9303 43.7579 34.9896 42.1415C36.049 40.525 36.614 38.6248 36.6133 36.6812C36.6097 34.0759 35.592 31.5784 33.7833 29.7364C31.9747 27.8944 29.5227 26.8584 26.9652 26.8555L26.9598 26.8573Z" fill="#0D6BB4"/>
<path d="M26.9655 46.6952C25.0216 46.6956 23.1213 46.1087 21.5048 45.0089C19.8883 43.909 18.6283 42.3456 17.8841 40.5162C17.1398 38.6869 16.9448 36.6738 17.3237 34.7315C17.7026 32.7893 18.6384 31.0051 20.0127 29.6046C21.3869 28.2041 23.138 27.2502 25.0445 26.8635C26.951 26.4768 28.9272 26.6747 30.7233 27.4322C32.5193 28.1897 34.0545 29.4727 35.1348 31.119C36.2151 32.7653 36.7918 34.7009 36.7922 36.6812C36.7894 39.3355 35.7532 41.8804 33.9111 43.7577C32.069 45.635 29.5712 46.6914 26.9655 46.6952ZM26.9655 25.3682C24.7684 25.3682 22.6207 26.0319 20.7939 27.2754C18.9671 28.5189 17.5434 30.2864 16.7027 32.3542C15.8621 34.422 15.6422 36.6974 16.0711 38.8925C16.4999 41.0876 17.5581 43.1039 19.1119 44.6863C20.6656 46.2688 22.6451 47.3463 24.8001 47.7826C26.955 48.2189 29.1886 47.9944 31.2183 47.1375C33.2479 46.2806 34.9826 44.8298 36.2029 42.9686C37.4231 41.1074 38.0741 38.9193 38.0736 36.6812C38.0731 33.6805 36.9026 30.8028 34.8194 28.6812C32.7363 26.5597 29.9112 25.3679 26.9655 25.3682Z" fill="#0D6BB4"/>
<path d="M26.9655 46.6952C25.0216 46.6956 23.1213 46.1087 21.5048 45.0089C19.8883 43.909 18.6283 42.3456 17.8841 40.5162C17.1398 38.6869 16.9448 36.6738 17.3237 34.7315C17.7026 32.7893 18.6384 31.0051 20.0127 29.6046C21.3869 28.2041 23.138 27.2502 25.0445 26.8635C26.951 26.4768 28.9272 26.6747 30.7233 27.4322C32.5193 28.1897 34.0545 29.4727 35.1348 31.119C36.2151 32.7653 36.7918 34.7009 36.7922 36.6812C36.7894 39.3355 35.7532 41.8804 33.9111 43.7577C32.069 45.635 29.5712 46.6914 26.9655 46.6952ZM26.9655 25.3682C24.7684 25.3682 22.6207 26.0319 20.7939 27.2754C18.9671 28.5189 17.5434 30.2864 16.7027 32.3542C15.8621 34.422 15.6422 36.6974 16.0711 38.8925C16.4999 41.0876 17.5581 43.1039 19.1119 44.6863C20.6656 46.2688 22.6451 47.3463 24.8001 47.7826C26.955 48.2189 29.1886 47.9944 31.2183 47.1375C33.2479 46.2806 34.9826 44.8298 36.2029 42.9686C37.4231 41.1074 38.0741 38.9193 38.0736 36.6812C38.0731 33.6805 36.9026 30.8028 34.8194 28.6812C32.7363 26.5597 29.9112 25.3679 26.9655 25.3682Z" fill="#0D6BB4"/>
<defs>
<linearGradient id="paint0_linear_3527_9740" x1="1.59007" y1="18.2147" x2="54.6323" y2="18.2147" gradientUnits="userSpaceOnUse">
<stop stop-color="#9E9E9E"/>
<stop offset="0.06" stop-color="#A8A8A8"/>
<stop offset="0.15" stop-color="#C4C4C4"/>
<stop offset="0.23" stop-color="#DDDDDD"/>
<stop offset="0.38" stop-color="#BEBEBE"/>
<stop offset="0.47" stop-color="#B3B2B2"/>
<stop offset="0.48" stop-color="#AFAEAE"/>
<stop offset="0.58" stop-color="#999A9A"/>
<stop offset="0.67" stop-color="#8C8D8D"/>
<stop offset="0.75" stop-color="#888989"/>
<stop offset="0.83" stop-color="#8D8D8D"/>
<stop offset="0.92" stop-color="#9A9A9A"/>
<stop offset="1" stop-color="#ADADAD"/>
</linearGradient>
</defs>
</svg>
