<?xml version="1.0" encoding="utf-8"?>
<!-- Generator: Adobe Illustrator 17.0.0, SVG Export Plug-In . SVG Version: 6.00 Build 0)  -->
<!DOCTYPE svg PUBLIC "-//W3C//DTD SVG 1.1//EN" "http://www.w3.org/Graphics/SVG/1.1/DTD/svg11.dtd">
<svg version="1.1" id="Слой_1" xmlns="http://www.w3.org/2000/svg" xmlns:xlink="http://www.w3.org/1999/xlink" x="0px" y="0px"
	 width="106.044px" height="106.045px" viewBox="0 0 106.044 106.045" enable-background="new 0 0 106.044 106.045"
	 xml:space="preserve">
<g>
	<path d="M106.155,20.91c0,0-0.045,0.117-0.111,0.316h0.189C106.182,21.024,106.155,20.91,106.155,20.91z"/>
	<path fill-rule="evenodd" clip-rule="evenodd" fill="#A8CA43" d="M53.021,0C27.238,6.728,6.729,27.237,0,53.021
		c6.733,25.787,27.233,46.29,53.021,53.024c25.787-6.731,46.294-27.241,53.022-53.024C99.314,27.233,78.811,6.733,53.021,0L53.021,0
		z M11.706,33.546C22.443,10.763,49.715,0.964,72.499,11.704c22.783,10.738,32.58,38.008,21.841,60.793
		C83.6,95.28,56.329,105.077,33.546,94.34C10.764,83.598,0.964,56.327,11.706,33.546L11.706,33.546z"/>
	<path fill-rule="evenodd" clip-rule="evenodd" d="M13.415,34.351C23.726,12.476,49.818,3.101,71.693,13.413
		c21.874,10.312,31.249,36.402,20.938,58.28c-10.313,21.875-36.406,31.249-58.281,20.936C12.476,82.314,3.103,56.226,13.415,34.351
		L13.415,34.351z M23.413,39.063c7.709-16.351,27.214-23.359,43.568-15.651c16.352,7.71,23.361,27.213,15.65,43.567
		C74.925,83.332,55.419,90.338,39.066,82.63C22.715,74.921,15.706,55.416,23.413,39.063L23.413,39.063z"/>
	<g>
		<path fill-rule="evenodd" clip-rule="evenodd" fill="#F2CB2F" d="M58.795,23.524c-10.107-2.026-20.042,1.312-26.86,8.051
			l0.34,1.661c0.609,2.978,6.973,15.872,8.896,18.295c7.603-11.094,19.168-19.33,30.817-21.71
			C68.303,26.755,63.824,24.535,58.795,23.524L58.795,23.524z"/>
		<path fill-rule="evenodd" clip-rule="evenodd" fill="#F2CB2F" d="M47.062,82.006c10.104,2.028,20.04-1.312,26.859-8.051
			l-0.341-1.659c-0.608-2.98-6.975-15.871-8.896-18.295c-7.606,11.093-19.167,19.329-30.819,21.708
			C37.552,78.777,42.03,80.996,47.062,82.006L47.062,82.006z"/>
		<path fill-rule="evenodd" clip-rule="evenodd" fill="#A8CA43" d="M82.169,58.633c2.027-10.107-1.313-20.042-8.054-26.858
			l-1.661,0.34c-2.978,0.607-15.873,6.95-18.307,8.884c11.101,7.605,19.344,19.174,21.725,30.825
			C78.94,68.141,81.16,63.663,82.169,58.633L82.169,58.633z"/>
		<path fill-rule="evenodd" clip-rule="evenodd" fill="#A8CA43" d="M23.685,46.9c-2.026,10.103,1.314,20.041,8.052,26.855
			l1.661-0.337c2.98-0.61,15.87-6.976,18.294-8.896C40.598,56.918,32.36,45.353,29.983,33.704
			C26.917,37.391,24.694,41.869,23.685,46.9L23.685,46.9z"/>
	</g>
	<g>
		<path fill="#FFFFFF" d="M20.899,28.542l0.989,0.738l0.947-1.269l0.685,0.511l-0.947,1.27l1.055,0.787l1.16-1.556l0.704,0.525
			l-1.889,2.533L19.473,29l1.889-2.533l0.622,0.622L20.899,28.542z"/>
		<path fill="#FFFFFF" d="M29.608,26.92l-0.582,0.615l-0.988-0.75l-1.875,1.982l0.805,0.945l-0.577,0.61l-1.572-1.486l0.261-0.275
			c-0.016-0.158-0.067-0.325-0.157-0.501c-0.088-0.176-0.231-0.396-0.426-0.659c-0.195-0.262-0.482-0.628-0.865-1.099l-1.039-1.259
			l2.063-2.183l3.068,2.901l0.312-0.33L29.608,26.92z M23.952,24.917l0.407,0.467c0.377,0.438,0.666,0.801,0.865,1.088
			c0.198,0.287,0.338,0.539,0.418,0.753c0.08,0.215,0.112,0.428,0.097,0.639l1.175-1.243l-2.416-2.283L23.952,24.917z"/>
		<path fill="#FFFFFF" d="M31.19,24.043l-1.214-1.494c-0.446-0.55-0.83-1.111-1.147-1.683l1.345,4.002l-1.136,0.923l-3.249-3.999
			l0.929-0.754l1.237,1.523c0.26,0.319,0.463,0.594,0.613,0.824c0.149,0.23,0.314,0.505,0.496,0.823L27.751,20.2l1.12-0.909
			l3.249,3.998L31.19,24.043z"/>
		<path fill="#FFFFFF" d="M32.66,20.311l1.15,1.885l-1.042,0.635l-2.683-4.398l1.042-0.634l1.037,1.701l1.32-0.805l-1.037-1.702
			l1.041-0.635l2.683,4.398l-1.04,0.635l-1.15-1.885L32.66,20.311z"/>
		<path fill="#FFFFFF" d="M37.302,18.997l0.216,1.118l-1.154,0.516l-0.688-5.337l1.351-0.605l3.524,4.067l-1.181,0.528l-0.69-0.904
			L37.302,18.997z M36.696,15.807l0.436,2.298l0.99-0.444L36.696,15.807z"/>
		<path fill="#FFFFFF" d="M44.159,17.654l-1.171,0.364l-0.551-1.774l-0.576,0.178l-0.271,2.031l-1.278,0.396l0.443-2.309
			c-0.655-0.071-1.085-0.436-1.29-1.094c-0.327-1.051,0.183-1.785,1.526-2.203l1.64-0.51L44.159,17.654z M41.712,13.915
			l-0.404,0.125c-0.577,0.18-0.784,0.532-0.622,1.057c0.075,0.236,0.198,0.396,0.371,0.479c0.174,0.084,0.375,0.09,0.602,0.02
			l0.525-0.163L41.712,13.915z"/>
		<path fill="#FFFFFF" d="M52.482,16.491l-1.326,0.111l-1.29-2.137l-0.534,0.044l0.187,2.23l-1.215,0.102l-0.429-5.134l1.214-0.102
			l0.169,2.015l0.563-0.047l0.898-2.105l1.193-0.099L50.839,13.8L52.482,16.491z"/>
		<path fill="#FFFFFF" d="M56.479,12.094c0.389,0.488,0.567,1.16,0.532,2.017c-0.024,0.559-0.136,1.039-0.338,1.437
			c-0.202,0.398-0.483,0.698-0.841,0.898c-0.357,0.202-0.776,0.292-1.257,0.272c-0.48-0.02-0.89-0.143-1.227-0.37
			c-0.338-0.227-0.592-0.546-0.761-0.957c-0.169-0.412-0.242-0.902-0.219-1.472c0.023-0.555,0.135-1.031,0.337-1.43
			c0.204-0.398,0.482-0.698,0.838-0.899c0.354-0.201,0.772-0.292,1.253-0.272C55.529,11.348,56.09,11.607,56.479,12.094z
			 M53.958,12.604c-0.181,0.278-0.286,0.734-0.313,1.367c-0.025,0.634,0.042,1.098,0.204,1.392c0.161,0.295,0.415,0.449,0.761,0.463
			c0.357,0.015,0.627-0.117,0.81-0.394c0.183-0.278,0.287-0.736,0.313-1.375c0.025-0.638-0.043-1.103-0.204-1.392
			c-0.162-0.289-0.418-0.441-0.77-0.456C54.409,12.195,54.141,12.327,53.958,12.604z"/>
		<path fill="#FFFFFF" d="M61.158,17.424l-1.201-0.209l0.725-4.167l-1.055-0.184l-0.49,1.688c-0.17,0.569-0.336,1.014-0.5,1.332
			c-0.163,0.319-0.365,0.555-0.603,0.711c-0.238,0.154-0.547,0.239-0.926,0.253l-0.14-0.893c0.188-0.037,0.337-0.109,0.445-0.216
			c0.109-0.107,0.204-0.26,0.284-0.46c0.08-0.199,0.187-0.526,0.321-0.981l0.755-2.517l3.267,0.569L61.158,17.424z"/>
		<path fill="#FFFFFF" d="M65.683,18.795l-1.163-0.367l1.272-4.034l-1.021-0.322l-0.709,1.608c-0.245,0.542-0.468,0.96-0.672,1.254
			c-0.205,0.294-0.435,0.502-0.693,0.623c-0.256,0.122-0.573,0.165-0.952,0.128l-0.02-0.903c0.192-0.012,0.349-0.064,0.471-0.156
			c0.122-0.091,0.236-0.231,0.343-0.418c0.107-0.187,0.255-0.497,0.449-0.93l1.083-2.395l3.162,0.997L65.683,18.795z"/>
		<path fill="#FFFFFF" d="M69.309,15.714L68.8,16.838l1.442,0.653L69.89,18.27l-1.442-0.652l-0.542,1.199l1.768,0.8l-0.363,0.799
			l-2.878-1.302l2.124-4.694l2.878,1.303l-0.473,0.741L69.309,15.714z"/>
		<path fill="#FFFFFF" d="M73.452,22.848l-1.142-0.684l0.201-2.489l-0.46-0.275l-1.151,1.919l-1.045-0.627l2.649-4.418L73.55,16.9
			l-1.04,1.734l0.485,0.291l1.957-1.184l1.027,0.616l-2.291,1.349L73.452,22.848z"/>
		<path fill="#FFFFFF" d="M76.457,26.807l-0.664-0.527l0.663-1.049l-2.772-2.2l3.203-4.036l0.954,0.758l-2.61,3.291l1.158,0.919
			L79,20.672l0.956,0.758l-2.621,3.301l0.472,0.375L76.457,26.807z"/>
		<path fill="#FFFFFF" d="M79.442,28.158l1.39-1.332c0.513-0.49,1.04-0.917,1.584-1.281l-3.88,1.668l-1.013-1.058l3.721-3.564
			l0.828,0.864l-1.418,1.358c-0.297,0.285-0.554,0.511-0.771,0.678c-0.217,0.167-0.478,0.354-0.78,0.561l3.89-1.635l0.997,1.042
			l-3.72,3.564L79.442,28.158z"/>
		<path fill="#FFFFFF" d="M82.882,32.502l-0.728-0.988l1.497-1.103l-0.358-0.485l-2.007,0.409l-0.793-1.077l2.327-0.339
			c-0.148-0.643,0.056-1.169,0.611-1.577c0.885-0.653,1.746-0.413,2.581,0.721l1.02,1.382L82.882,32.502z M85.614,28.965
			l-0.252-0.341c-0.359-0.487-0.759-0.567-1.202-0.241c-0.201,0.146-0.311,0.316-0.332,0.508c-0.023,0.192,0.037,0.382,0.179,0.574
			l0.326,0.443L85.614,28.965z"/>
		<path fill="#A8CA43" d="M85.679,40.786l-0.336-0.777l1.08-0.613l-1.405-3.248l4.728-2.046l0.484,1.119l-3.854,1.668l0.587,1.357
			l3.855-1.668l0.485,1.119l-3.869,1.674l0.239,0.553L85.679,40.786z"/>
		<path fill="#A8CA43" d="M87.676,43.39l1.854-0.52c0.683-0.191,1.349-0.318,2.001-0.382l-4.208-0.359l-0.395-1.411l4.962-1.388
			l0.323,1.153l-1.89,0.529c-0.397,0.111-0.73,0.189-1,0.234c-0.271,0.044-0.588,0.087-0.953,0.127l4.202,0.392l0.388,1.388
			l-4.961,1.389L87.676,43.39z"/>
		<path fill="#A8CA43" d="M89.737,50.217c-0.425-0.382-0.702-0.945-0.826-1.689l-0.606,0.073l-0.142-1.173l0.612-0.075
			c-0.052-0.762,0.079-1.377,0.393-1.845c0.316-0.467,0.832-0.745,1.552-0.832c0.737-0.089,1.318,0.056,1.745,0.436
			c0.425,0.38,0.699,0.945,0.819,1.694l0.569-0.069l0.143,1.174l-0.568,0.069c0.052,0.762-0.079,1.377-0.395,1.845
			c-0.315,0.468-0.831,0.745-1.55,0.833C90.746,50.746,90.164,50.6,89.737,50.217z M89.821,46.335
			c-0.218,0.226-0.315,0.552-0.293,0.979l3.02-0.367c-0.088-0.429-0.265-0.725-0.532-0.887c-0.267-0.163-0.649-0.213-1.146-0.153
			C90.387,45.967,90.037,46.109,89.821,46.335z M90.188,49.271c0.268,0.163,0.649,0.214,1.146,0.153
			c0.481-0.058,0.832-0.201,1.049-0.426c0.217-0.227,0.315-0.553,0.293-0.979l-3.02,0.366
			C89.745,48.813,89.922,49.109,90.188,49.271z"/>
		<path fill="#A8CA43" d="M93.471,54.79c-0.292,0.369-0.715,0.548-1.27,0.534c-0.579-0.015-1.013-0.21-1.298-0.586
			c-0.285-0.376-0.42-0.874-0.406-1.494l0.015-0.557l-1.717-0.042l0.03-1.219l5.15,0.126l-0.041,1.665
			C93.917,53.896,93.763,54.42,93.471,54.79z M91.565,53.825c0.131,0.154,0.354,0.235,0.666,0.243
			c0.539,0.013,0.818-0.282,0.832-0.887l0.011-0.431l-1.688-0.042l-0.011,0.454C91.37,53.449,91.432,53.671,91.565,53.825z"/>
		<path fill="#A8CA43" d="M92.621,60.188c-0.529,0.331-1.216,0.431-2.064,0.298c-0.552-0.086-1.016-0.252-1.389-0.499
			c-0.372-0.246-0.639-0.559-0.797-0.937c-0.16-0.378-0.202-0.805-0.128-1.28c0.073-0.475,0.243-0.867,0.506-1.177
			c0.265-0.31,0.61-0.525,1.039-0.647c0.427-0.122,0.923-0.138,1.486-0.05c0.548,0.085,1.009,0.251,1.382,0.498
			c0.373,0.246,0.639,0.557,0.799,0.934c0.159,0.376,0.202,0.801,0.128,1.276C93.47,59.328,93.148,59.856,92.621,60.188z
			 M92.4,57.625c-0.256-0.213-0.697-0.368-1.323-0.466c-0.628-0.098-1.096-0.083-1.407,0.044c-0.311,0.127-0.493,0.362-0.546,0.704
			c-0.055,0.353,0.046,0.636,0.3,0.849c0.256,0.213,0.7,0.369,1.331,0.467c0.632,0.099,1.101,0.084,1.406-0.044
			c0.307-0.128,0.486-0.366,0.54-0.714C92.755,58.118,92.655,57.837,92.4,57.625z"/>
		<path fill="#A8CA43" d="M89.082,64.754c-0.242,0.153-0.543,0.177-0.903,0.07c-0.528-0.157-0.844-0.456-0.948-0.898
			c-0.105-0.442-0.056-1.002,0.146-1.682l0.47-1.589l4.94,1.461l-0.414,1.397c-0.205,0.694-0.46,1.195-0.765,1.503
			c-0.306,0.307-0.683,0.396-1.129,0.263c-0.29-0.087-0.498-0.242-0.625-0.468c-0.127-0.227-0.184-0.477-0.169-0.752
			C89.525,64.369,89.324,64.6,89.082,64.754z M88.153,63.246c0.045,0.187,0.194,0.317,0.446,0.392
			c0.456,0.135,0.769-0.083,0.937-0.653l0.153-0.513l-1.34-0.396l-0.127,0.428C88.13,62.811,88.107,63.059,88.153,63.246z
			 M90.465,62.701l-0.128,0.435c-0.146,0.494-0.019,0.8,0.379,0.918c0.2,0.06,0.361,0.034,0.484-0.074
			c0.122-0.109,0.227-0.308,0.312-0.598l0.101-0.342L90.465,62.701z"/>
		<path fill="#A8CA43" d="M84.335,69.742l0.516-1.105l4.67,2.176l-0.515,1.105L84.335,69.742z M87.951,69.052
			c-0.399,0.205-0.848,0.191-1.346-0.041c-0.525-0.245-0.843-0.596-0.954-1.052c-0.109-0.455-0.035-0.962,0.225-1.52l0.724-1.556
			l4.67,2.177l-0.516,1.105l-1.59-0.741l-0.198,0.424C88.689,68.446,88.35,68.848,87.951,69.052z M86.637,67.382
			c0.062,0.19,0.226,0.347,0.491,0.47c0.252,0.117,0.469,0.139,0.651,0.066c0.182-0.074,0.336-0.248,0.464-0.522l0.154-0.33
			l-1.509-0.704l-0.167,0.357C86.603,66.971,86.575,67.192,86.637,67.382z"/>
		<path fill="#A8CA43" d="M82.492,72.543l2.129,0.319l-1.179-1.794l0.701-1.088l1.519,2.695l2.751,0.189l-0.717,1.113l-1.79-0.269
			l0.965,1.55l-0.701,1.087l-1.258-2.428l-3.142-0.256L82.492,72.543z"/>
		<path fill="#A8CA43" d="M79.835,82.435c-0.621-0.055-1.229-0.39-1.826-1.006c-0.389-0.403-0.659-0.814-0.807-1.235
			c-0.149-0.422-0.173-0.831-0.072-1.229c0.101-0.398,0.325-0.763,0.67-1.098c0.345-0.334,0.717-0.545,1.115-0.633
			c0.397-0.088,0.804-0.052,1.218,0.11c0.414,0.161,0.82,0.446,1.215,0.856c0.386,0.399,0.654,0.81,0.802,1.231
			c0.148,0.421,0.174,0.83,0.074,1.226c-0.099,0.396-0.322,0.762-0.666,1.097C81.031,82.261,80.457,82.489,79.835,82.435z
			 M81.204,80.257c-0.075-0.324-0.333-0.713-0.773-1.17c-0.441-0.456-0.824-0.727-1.148-0.813c-0.325-0.086-0.611-0.009-0.86,0.232
			c-0.257,0.248-0.349,0.533-0.271,0.858c0.075,0.324,0.334,0.715,0.779,1.174c0.444,0.46,0.827,0.731,1.148,0.814
			c0.321,0.082,0.608,0.001,0.861-0.243C81.19,80.865,81.28,80.581,81.204,80.257z"/>
		<path fill="#A8CA43" d="M74.85,84.206c-0.446-0.007-0.828-0.224-1.144-0.65c-0.334-0.45-0.439-0.899-0.315-1.348
			c0.122-0.45,0.432-0.858,0.924-1.224l1.439-1.067l3.07,4.138l-2.579,1.914l-0.448-0.816l1.499-1.112l-0.545-0.734l-0.442,0.328
			C75.784,84.023,75.296,84.214,74.85,84.206z M74.717,82.787c0.311,0.418,0.7,0.453,1.17,0.104l0.358-0.266l-0.944-1.271
			l-0.376,0.279C74.468,81.971,74.399,82.356,74.717,82.787z"/>
		<path fill="#A8CA43" d="M71.802,88.143c-0.466-0.059-0.837-0.33-1.111-0.812c-0.287-0.504-0.343-0.976-0.168-1.415
			c0.176-0.439,0.532-0.811,1.07-1.118l0.484-0.275l-0.849-1.493l1.06-0.603l2.547,4.478l-1.447,0.823
			C72.797,88.064,72.27,88.203,71.802,88.143z M71.647,86.013c-0.065,0.193-0.019,0.426,0.135,0.697
			c0.267,0.47,0.663,0.555,1.19,0.256l0.374-0.213l-0.835-1.468l-0.394,0.225C71.867,85.652,71.711,85.82,71.647,86.013z"/>
		<path fill="#A8CA43" d="M68.542,85.69l-0.204-1.119l1.158-0.506l0.637,5.344L68.776,90l-3.484-4.1l1.185-0.518l0.682,0.911
			L68.542,85.69z M69.118,88.886l-0.413-2.302l-0.996,0.434L69.118,88.886z"/>
		<path fill="#A8CA43" d="M64.127,91.561c-0.289-0.035-0.529-0.128-0.723-0.282c-0.194-0.154-0.33-0.356-0.405-0.607
			c-0.088-0.291-0.069-0.562,0.055-0.817c0.125-0.255,0.357-0.473,0.696-0.653c-0.402,0.075-0.746,0.043-1.031-0.096
			c-0.286-0.139-0.482-0.386-0.589-0.742c-0.092-0.304-0.091-0.596,0.006-0.876c0.097-0.28,0.275-0.528,0.537-0.745
			c0.261-0.215,0.583-0.382,0.968-0.499c0.72-0.219,1.359-0.16,1.916,0.173l-0.434,0.8c-0.203-0.105-0.394-0.168-0.574-0.191
			c-0.181-0.023-0.368-0.005-0.564,0.053c-0.26,0.079-0.445,0.204-0.554,0.374c-0.109,0.17-0.129,0.37-0.06,0.597
			c0.068,0.228,0.197,0.382,0.385,0.462c0.188,0.08,0.426,0.077,0.715-0.01l0.519-0.157l0.119,0.88l-0.405,0.122
			c-0.233,0.07-0.398,0.178-0.493,0.324c-0.096,0.146-0.114,0.315-0.056,0.51c0.052,0.17,0.146,0.294,0.283,0.369
			c0.137,0.076,0.314,0.08,0.533,0.014c0.328-0.099,0.615-0.331,0.861-0.696l0.741,0.421c-0.333,0.577-0.834,0.967-1.503,1.169
			C64.728,91.561,64.414,91.595,64.127,91.561z"/>
		<path fill="#A8CA43" d="M58.212,92.252c-0.483-0.395-0.797-1.015-0.941-1.859c-0.096-0.552-0.085-1.044,0.03-1.476
			c0.113-0.432,0.324-0.784,0.632-1.055c0.308-0.271,0.7-0.448,1.172-0.529c0.474-0.081,0.9-0.047,1.278,0.104
			c0.379,0.151,0.693,0.41,0.945,0.777c0.251,0.366,0.424,0.831,0.522,1.392c0.094,0.547,0.084,1.037-0.03,1.469
			c-0.115,0.432-0.325,0.784-0.63,1.055c-0.305,0.271-0.695,0.448-1.169,0.529C59.298,92.782,58.694,92.646,58.212,92.252z
			 M60.569,91.224c0.122-0.31,0.128-0.778,0.02-1.403c-0.106-0.624-0.271-1.065-0.49-1.319c-0.219-0.253-0.501-0.352-0.842-0.293
			c-0.352,0.061-0.587,0.245-0.708,0.555c-0.121,0.31-0.125,0.78-0.018,1.41c0.108,0.63,0.271,1.069,0.491,1.318
			c0.218,0.249,0.501,0.344,0.848,0.284C60.216,91.719,60.45,91.534,60.569,91.224z"/>
		<path fill="#A8CA43" d="M52.759,90.363c-0.223-0.18-0.341-0.458-0.355-0.834c-0.023-0.55,0.16-0.945,0.545-1.186
			c0.385-0.241,0.931-0.375,1.639-0.402l1.656-0.065l0.199,5.148l-1.456,0.056c-0.723,0.028-1.279-0.053-1.668-0.244
			c-0.389-0.19-0.592-0.519-0.61-0.984c-0.012-0.302,0.069-0.549,0.243-0.742c0.174-0.193,0.393-0.327,0.657-0.402
			C53.265,90.658,52.982,90.543,52.759,90.363z M53.889,88.999c-0.161,0.104-0.238,0.286-0.227,0.548
			c0.018,0.476,0.324,0.702,0.918,0.678l0.535-0.021l-0.054-1.396l-0.446,0.018C54.293,88.837,54.052,88.896,53.889,88.999z
			 M55.146,91.015l-0.453,0.017c-0.514,0.021-0.764,0.238-0.749,0.654c0.008,0.208,0.083,0.353,0.226,0.434
			c0.142,0.081,0.363,0.116,0.665,0.104l0.356-0.014L55.146,91.015z"/>
		<path fill="#A8CA43" d="M50.92,89.027l0.347-1.084l1.259,0.099l-1.953,5.014l-1.476-0.117l-1.143-5.259l1.29,0.103l0.172,1.125
			L50.92,89.027z M49.922,92.118l0.721-2.225l-1.083-0.086L49.922,92.118z"/>
		<path fill="#A8CA43" d="M45.232,91.419l0.764-4.146l1.199,0.221l-0.764,4.146l1.31,0.241l-0.171,0.921l-3.875-0.714l0.286-0.9
			L45.232,91.419z"/>
		<path fill="#A8CA43" d="M41.871,90.658l0.354-1.182l-1.517-0.454l0.245-0.819l1.517,0.454l0.378-1.261l-1.86-0.557l0.253-0.84
			l3.026,0.907L42.79,91.84l-3.027-0.906l0.371-0.796L41.871,90.658z"/>
		<path fill="#A8CA43" d="M37.088,84.249l1.118,0.486l-1.687,3.879l0.982,0.427l0.874-1.525c0.298-0.514,0.565-0.906,0.799-1.177
			c0.233-0.271,0.485-0.454,0.754-0.548c0.267-0.095,0.587-0.104,0.96-0.028l-0.076,0.899c-0.19-0.007-0.352,0.028-0.483,0.106
			c-0.131,0.078-0.259,0.205-0.385,0.38c-0.125,0.176-0.306,0.469-0.544,0.878l-1.327,2.268l-3.04-1.322L37.088,84.249z"/>
		<path fill="#A8CA43" d="M32.006,84.744c-0.165-0.417-0.106-0.862,0.174-1.336c0.297-0.499,0.678-0.779,1.143-0.843
			c0.464-0.064,0.96,0.061,1.489,0.375l1.54,0.916l-2.632,4.428l-1.048-0.623l0.896-1.507l-0.473-0.281
			C32.533,85.537,32.169,85.161,32.006,84.744z M33.799,83.604c-0.195,0.043-0.368,0.19-0.517,0.441
			c-0.143,0.238-0.185,0.453-0.13,0.641c0.055,0.188,0.211,0.358,0.466,0.51l0.383,0.228l0.851-1.432l-0.403-0.239
			C34.211,83.611,33.995,83.562,33.799,83.604z"/>
		<path fill="#A8CA43" d="M30.384,82.639l1.357-1.742l0.961,0.749l-3.163,4.066l-0.962-0.749l1.223-1.572l-1.22-0.95l-1.223,1.572
			l-0.964-0.749l3.165-4.065l0.961,0.748l-1.355,1.743L30.384,82.639z"/>
		<path fill="#A8CA43" d="M25.263,74.816l0.838,0.886l-3.746,3.538l-0.837-0.886L25.263,74.816z M24.571,78.431
			c-0.043-0.447,0.135-0.858,0.535-1.237c0.421-0.398,0.865-0.564,1.329-0.499c0.464,0.066,0.907,0.322,1.33,0.769l1.179,1.248
			l-3.745,3.538l-0.838-0.886l1.277-1.205l-0.323-0.34C24.862,79.34,24.615,78.878,24.571,78.431z M26.608,77.826
			c-0.199-0.012-0.405,0.082-0.619,0.282c-0.202,0.19-0.301,0.384-0.3,0.58c0.002,0.196,0.106,0.404,0.313,0.624l0.25,0.265
			l1.21-1.144l-0.271-0.286C27.002,77.946,26.807,77.838,26.608,77.826z"/>
		<path fill="#A8CA43" d="M23.369,72.089l-1.099,1.852l2.106-0.415l0.742,1.058l-3.067,0.392l-1.213,2.478l-0.76-1.083l0.923-1.557
			l-1.8,0.309l-0.743-1.059l2.724-0.248L22.603,71L23.369,72.089z"/>
		<path fill="#A8CA43" d="M15.23,66.552c0.114-0.457,0.428-0.793,0.94-1.007c0.535-0.224,1.01-0.223,1.424,0.003
			c0.415,0.227,0.743,0.626,0.981,1.197l0.216,0.514l1.585-0.664l0.471,1.124l-4.751,1.992l-0.644-1.535
			C15.19,67.55,15.116,67.009,15.23,66.552z M17.365,66.653c-0.185-0.087-0.42-0.07-0.708,0.05c-0.498,0.209-0.63,0.592-0.396,1.15
			l0.167,0.398l1.557-0.653l-0.176-0.418C17.697,66.915,17.549,66.739,17.365,66.653z"/>
		<path fill="#A8CA43" d="M14.771,63.706l1.185-0.345l-0.442-1.52l0.82-0.239l0.444,1.521l1.262-0.368l-0.543-1.863l0.842-0.245
			l0.884,3.034l-4.946,1.441l-0.884-3.034l0.871-0.122L14.771,63.706z"/>
		<path fill="#A8CA43" d="M12.63,58.004c0.05-0.263,0.148-0.521,0.295-0.773l0.798,0.465c-0.195,0.325-0.263,0.65-0.207,0.972
			c0.058,0.336,0.25,0.579,0.576,0.726c0.324,0.147,0.786,0.169,1.381,0.064c0.59-0.104,1.012-0.279,1.262-0.526
			c0.251-0.248,0.346-0.547,0.285-0.899c-0.032-0.18-0.097-0.339-0.196-0.475c-0.1-0.136-0.233-0.283-0.401-0.439l0.608-0.665
			c0.218,0.153,0.414,0.355,0.585,0.607c0.171,0.251,0.287,0.541,0.344,0.868c0.081,0.468,0.051,0.895-0.094,1.276
			c-0.145,0.382-0.401,0.706-0.77,0.968c-0.369,0.264-0.837,0.445-1.403,0.543c-0.552,0.097-1.045,0.081-1.48-0.047
			c-0.434-0.128-0.786-0.346-1.053-0.653c-0.267-0.309-0.44-0.682-0.517-1.121C12.584,58.564,12.58,58.267,12.63,58.004z"/>
		<path fill="#A8CA43" d="M16.823,53.96c0.239,0.178,0.421,0.396,0.545,0.653c0.124,0.259,0.215,0.587,0.273,0.986l-0.806,0.21
			c-0.059-0.324-0.142-0.57-0.247-0.737c-0.107-0.167-0.271-0.305-0.49-0.411l0.023,0.386l-3.694,1.793l-0.073-1.254l3.034-1.248
			l-3.151-0.763l-0.071-1.231l3.687,1.163C16.26,53.632,16.584,53.784,16.823,53.96z"/>
		<path fill="#A8CA43" d="M12.816,48.283c0.306-0.359,0.735-0.521,1.288-0.487c0.579,0.035,1.005,0.246,1.277,0.632
			c0.272,0.386,0.389,0.889,0.351,1.507l-0.033,0.556l1.714,0.104l-0.074,1.217L12.196,51.5l0.102-1.662
			C12.339,49.161,12.512,48.643,12.816,48.283z M14.687,49.317c-0.127-0.16-0.345-0.248-0.658-0.268
			c-0.539-0.032-0.827,0.253-0.864,0.856l-0.025,0.431l1.684,0.103l0.028-0.453C14.869,49.7,14.813,49.476,14.687,49.317z"/>
		<path fill="#A8CA43" d="M13.128,43.681c0.137-0.229,0.319-0.436,0.544-0.623l0.588,0.711c-0.295,0.239-0.471,0.52-0.53,0.841
			c-0.06,0.336,0.037,0.63,0.291,0.88c0.254,0.25,0.679,0.43,1.275,0.538c0.589,0.106,1.046,0.087,1.366-0.059
			c0.321-0.146,0.515-0.394,0.577-0.745c0.033-0.181,0.025-0.352-0.02-0.514c-0.047-0.163-0.121-0.346-0.226-0.551l0.8-0.414
			c0.152,0.219,0.265,0.476,0.34,0.772c0.075,0.295,0.083,0.606,0.024,0.933c-0.085,0.468-0.261,0.856-0.528,1.166
			c-0.268,0.31-0.62,0.524-1.058,0.644c-0.437,0.12-0.938,0.128-1.504,0.026c-0.55-0.1-1.008-0.285-1.373-0.555
			c-0.363-0.27-0.619-0.595-0.764-0.977c-0.145-0.381-0.177-0.791-0.099-1.23C12.892,44.192,12.992,43.911,13.128,43.681z"/>
		<path fill="#A8CA43" d="M15.147,38.62c0.57-0.25,1.266-0.246,2.085,0.01c0.534,0.166,0.968,0.4,1.3,0.699
			c0.332,0.299,0.549,0.647,0.65,1.045c0.101,0.397,0.081,0.826-0.063,1.285c-0.144,0.459-0.369,0.822-0.676,1.09
			c-0.307,0.267-0.681,0.429-1.122,0.486c-0.441,0.056-0.933-0.001-1.477-0.171c-0.53-0.166-0.961-0.398-1.293-0.697
			c-0.332-0.299-0.549-0.646-0.652-1.041c-0.102-0.396-0.081-0.822,0.062-1.282C14.18,39.344,14.575,38.869,15.147,38.62z
			 M14.986,41.187c0.221,0.248,0.634,0.468,1.239,0.657c0.606,0.189,1.072,0.245,1.397,0.165c0.326-0.08,0.541-0.285,0.646-0.616
			c0.106-0.341,0.049-0.635-0.172-0.884c-0.22-0.248-0.636-0.468-1.246-0.659c-0.611-0.191-1.077-0.246-1.397-0.165
			c-0.321,0.082-0.534,0.29-0.639,0.625C14.707,40.646,14.765,40.939,14.986,41.187z"/>
		<path fill="#A8CA43" d="M19.32,34.627c0.262-0.116,0.563-0.095,0.904,0.064c0.5,0.233,0.767,0.575,0.806,1.027
			c0.038,0.452-0.094,1-0.393,1.642l-0.7,1.503l-4.67-2.176l0.616-1.321c0.305-0.656,0.633-1.113,0.979-1.372
			c0.348-0.259,0.733-0.29,1.155-0.094c0.274,0.128,0.457,0.313,0.548,0.556c0.093,0.243,0.111,0.499,0.057,0.769
			C18.826,34.942,19.059,34.743,19.32,34.627z M17.649,36.453l0.192-0.411c0.217-0.467,0.138-0.789-0.241-0.965
			c-0.188-0.087-0.351-0.087-0.488,0.002c-0.137,0.089-0.27,0.271-0.398,0.545l-0.15,0.323L17.649,36.453z M20.017,36.256
			c-0.018-0.192-0.145-0.342-0.383-0.454c-0.432-0.201-0.772-0.032-1.024,0.507l-0.227,0.485l1.267,0.591l0.189-0.404
			C19.975,36.689,20.035,36.447,20.017,36.256z"/>
	</g>
</g>
</svg>
